<svg width="1190" height="604" viewBox="0 0 1190 604" fill="none" xmlns="http://www.w3.org/2000/svg">
<path d="M962.762 491.66H960.714L958.506 487.596L956.314 491.66H954.266L957.418 486.204L954.458 480.988H956.49L958.506 484.828L960.522 480.988H962.57L959.61 486.188L962.762 491.66ZM969.325 491.66H967.741V490.876C967.272 491.526 966.594 491.852 965.709 491.852C965.048 491.852 964.488 491.622 964.029 491.164C963.57 490.694 963.341 490.065 963.341 489.276C963.341 488.486 963.57 487.873 964.029 487.436C964.488 486.988 965.048 486.764 965.709 486.764C966.616 486.764 967.293 487.073 967.741 487.692V486.572C967.741 486.102 967.608 485.74 967.341 485.484C967.085 485.228 966.717 485.1 966.237 485.1C965.533 485.1 964.893 485.393 964.317 485.98L963.693 484.86C964.44 484.113 965.384 483.74 966.525 483.74C967.378 483.74 968.056 483.958 968.557 484.396C969.069 484.822 969.325 485.484 969.325 486.38V491.66ZM966.285 490.748C966.925 490.748 967.41 490.465 967.741 489.9V488.732C967.592 488.465 967.384 488.257 967.117 488.108C966.85 487.948 966.573 487.868 966.285 487.868C965.88 487.868 965.554 488.001 965.309 488.268C965.064 488.534 964.941 488.881 964.941 489.308C964.941 489.734 965.064 490.081 965.309 490.348C965.554 490.614 965.88 490.748 966.285 490.748ZM974.154 490.444C974.708 490.444 975.13 490.188 975.418 489.676C975.706 489.153 975.85 488.513 975.85 487.756C975.85 487.03 975.706 486.417 975.418 485.916C975.13 485.404 974.708 485.148 974.154 485.148C973.61 485.148 973.194 485.404 972.906 485.916C972.618 486.417 972.474 487.03 972.474 487.756C972.474 488.513 972.618 489.153 972.906 489.676C973.194 490.188 973.61 490.444 974.154 490.444ZM974.154 491.852C973.087 491.852 972.266 491.446 971.69 490.636C971.114 489.814 970.826 488.748 970.826 487.436C970.826 485.462 971.066 484.07 971.546 483.26C972.036 482.449 972.911 481.937 974.17 481.724C974.735 481.628 975.124 481.526 975.338 481.42C975.562 481.313 975.674 481.169 975.674 480.988H977.258C977.258 481.34 977.172 481.649 977.002 481.916C976.831 482.172 976.591 482.374 976.282 482.524C975.983 482.673 975.706 482.785 975.45 482.86C975.194 482.934 974.9 482.998 974.57 483.052C973.098 483.286 972.298 483.921 972.17 484.956C972.394 484.582 972.703 484.289 973.098 484.076C973.492 483.852 973.935 483.74 974.426 483.74C975.375 483.74 976.122 484.129 976.666 484.908C977.22 485.686 977.498 486.641 977.498 487.772C977.498 488.913 977.204 489.878 976.618 490.668C976.031 491.457 975.21 491.852 974.154 491.852ZM984.637 491.66H983.053V490.876C982.584 491.526 981.907 491.852 981.021 491.852C980.36 491.852 979.8 491.622 979.341 491.164C978.883 490.694 978.653 490.065 978.653 489.276C978.653 488.486 978.883 487.873 979.341 487.436C979.8 486.988 980.36 486.764 981.021 486.764C981.928 486.764 982.605 487.073 983.053 487.692V486.572C983.053 486.102 982.92 485.74 982.653 485.484C982.397 485.228 982.029 485.1 981.549 485.1C980.845 485.1 980.205 485.393 979.629 485.98L979.005 484.86C979.752 484.113 980.696 483.74 981.837 483.74C982.691 483.74 983.368 483.958 983.869 484.396C984.381 484.822 984.637 485.484 984.637 486.38V491.66ZM981.597 490.748C982.237 490.748 982.723 490.465 983.053 489.9V488.732C982.904 488.465 982.696 488.257 982.429 488.108C982.163 487.948 981.885 487.868 981.597 487.868C981.192 487.868 980.867 488.001 980.621 488.268C980.376 488.534 980.253 488.881 980.253 489.308C980.253 489.734 980.376 490.081 980.621 490.348C980.867 490.614 981.192 490.748 981.597 490.748ZM992.154 490.748C991.653 491.484 990.97 491.852 990.106 491.852C989.242 491.852 988.581 491.441 988.122 490.62V494.604H986.522V483.932H988.122V484.956C988.346 484.572 988.634 484.273 988.986 484.06C989.338 483.846 989.711 483.74 990.106 483.74C990.981 483.74 991.669 484.102 992.17 484.828C992.671 485.553 992.922 486.54 992.922 487.788C992.922 489.025 992.666 490.012 992.154 490.748ZM989.626 490.444C990.159 490.444 990.565 490.198 990.842 489.708C991.13 489.206 991.274 488.566 991.274 487.788C991.274 487.009 991.13 486.374 990.842 485.884C990.565 485.393 990.159 485.148 989.626 485.148C989.327 485.148 989.034 485.249 988.746 485.452C988.469 485.654 988.261 485.905 988.122 486.204V489.372C988.261 489.67 988.469 489.926 988.746 490.14C989.034 490.342 989.327 490.444 989.626 490.444ZM999.805 490.684C999.218 491.462 998.402 491.852 997.357 491.852C996.312 491.852 995.49 491.462 994.893 490.684C994.306 489.905 994.013 488.94 994.013 487.788C994.013 486.636 994.306 485.676 994.893 484.908C995.48 484.129 996.301 483.74 997.357 483.74C998.413 483.74 999.234 484.129 999.821 484.908C1000.41 485.676 1000.7 486.636 1000.7 487.788C1000.7 488.94 1000.4 489.905 999.805 490.684ZM996.093 489.676C996.381 490.188 996.802 490.444 997.357 490.444C997.912 490.444 998.333 490.188 998.621 489.676C998.909 489.164 999.053 488.534 999.053 487.788C999.053 487.041 998.909 486.417 998.621 485.916C998.333 485.404 997.912 485.148 997.357 485.148C996.802 485.148 996.381 485.404 996.093 485.916C995.805 486.417 995.661 487.041 995.661 487.788C995.661 488.534 995.805 489.164 996.093 489.676ZM1005.87 491.66H1002.21V483.932H1005.78C1006.53 483.932 1007.11 484.118 1007.51 484.492C1007.91 484.854 1008.11 485.324 1008.11 485.9C1008.11 486.348 1007.99 486.726 1007.75 487.036C1007.51 487.334 1007.19 487.542 1006.79 487.66C1007.21 487.756 1007.56 487.985 1007.84 488.348C1008.12 488.7 1008.26 489.105 1008.26 489.564C1008.26 490.193 1008.05 490.7 1007.65 491.084C1007.25 491.468 1006.66 491.66 1005.87 491.66ZM1005.54 490.316C1006.26 490.316 1006.63 489.996 1006.63 489.356C1006.63 489.078 1006.53 488.844 1006.34 488.652C1006.16 488.46 1005.89 488.364 1005.54 488.364H1003.81V490.316H1005.54ZM1005.47 487.036C1006.13 487.036 1006.47 486.742 1006.47 486.156C1006.47 485.889 1006.38 485.676 1006.21 485.516C1006.05 485.345 1005.8 485.26 1005.47 485.26H1003.81V487.036H1005.47ZM1015.37 490.812C1014.81 491.505 1014.03 491.852 1013.01 491.852C1012 491.852 1011.18 491.473 1010.55 490.716C1009.93 489.948 1009.62 488.972 1009.62 487.788C1009.62 486.604 1009.93 485.633 1010.55 484.876C1011.17 484.118 1011.99 483.74 1013.01 483.74C1014.03 483.74 1014.81 484.086 1015.37 484.78L1014.55 485.868C1014.18 485.388 1013.72 485.148 1013.17 485.148C1012.59 485.148 1012.12 485.398 1011.78 485.9C1011.44 486.401 1011.27 487.03 1011.27 487.788C1011.27 488.556 1011.44 489.19 1011.78 489.692C1012.12 490.193 1012.59 490.444 1013.17 490.444C1013.71 490.444 1014.17 490.204 1014.55 489.724L1015.37 490.812ZM1022.87 491.66H1021L1019.18 488.428L1018.25 489.676V491.66H1016.65V483.932H1018.25V487.724L1020.97 483.932H1022.82L1020.26 487.404L1022.87 491.66Z" fill="#444444"/>
<circle cx="988.5" cy="500.66" r="4" fill="#444444"/>
<circle cx="975.633" cy="577.918" r="4" fill="#444444"/>
<path d="M939.879 596.918H935.719V586.246H939.751C940.626 586.246 941.303 586.502 941.783 587.014C942.263 587.526 942.503 588.177 942.503 588.966C942.503 589.617 942.343 590.156 942.023 590.582C941.714 590.998 941.314 591.276 940.823 591.414C941.346 591.489 941.783 591.782 942.135 592.294C942.498 592.796 942.679 593.377 942.679 594.038C942.679 594.902 942.439 595.601 941.959 596.134C941.479 596.657 940.786 596.918 939.879 596.918ZM939.367 590.694C939.805 590.694 940.13 590.566 940.343 590.31C940.567 590.044 940.679 589.692 940.679 589.254C940.679 588.817 940.567 588.465 940.343 588.198C940.119 587.932 939.794 587.798 939.367 587.798H937.495V590.694H939.367ZM939.431 595.35C939.901 595.35 940.253 595.217 940.487 594.95C940.733 594.673 940.855 594.289 940.855 593.798C940.855 593.35 940.733 592.982 940.487 592.694C940.242 592.406 939.89 592.262 939.431 592.262H937.495V595.35H939.431ZM943.515 597.11V595.75C943.845 595.75 944.101 595.574 944.283 595.222C944.475 594.87 944.613 594.209 944.699 593.238L945.051 589.19H950.043V596.918H948.459V590.582H946.507L946.299 593.366C946.192 594.732 945.909 595.697 945.451 596.262C944.992 596.828 944.347 597.11 943.515 597.11ZM957.52 596.918H955.936V596.134C955.467 596.785 954.79 597.11 953.904 597.11C953.243 597.11 952.683 596.881 952.224 596.422C951.766 595.953 951.536 595.324 951.536 594.534C951.536 593.745 951.766 593.132 952.224 592.694C952.683 592.246 953.243 592.022 953.904 592.022C954.811 592.022 955.488 592.332 955.936 592.95V591.83C955.936 591.361 955.803 590.998 955.536 590.742C955.28 590.486 954.912 590.358 954.432 590.358C953.728 590.358 953.088 590.652 952.512 591.238L951.888 590.118C952.635 589.372 953.579 588.998 954.72 588.998C955.574 588.998 956.251 589.217 956.752 589.654C957.264 590.081 957.52 590.742 957.52 591.638V596.918ZM954.48 596.006C955.12 596.006 955.606 595.724 955.936 595.158V593.99C955.787 593.724 955.579 593.516 955.312 593.366C955.046 593.206 954.768 593.126 954.48 593.126C954.075 593.126 953.75 593.26 953.504 593.526C953.259 593.793 953.136 594.14 953.136 594.566C953.136 594.993 953.259 595.34 953.504 595.606C953.75 595.873 954.075 596.006 954.48 596.006ZM958.749 598.886V595.654C959.112 595.58 959.378 595.393 959.549 595.094C959.72 594.796 959.848 594.177 959.933 593.238L960.285 589.19H965.277V595.526H966.109V598.886H964.509V596.918H960.333V598.886H958.749ZM961.741 590.582L961.533 593.366C961.458 594.326 961.17 595.046 960.669 595.526H963.693V590.582H961.741ZM968.848 596.918H967.296V589.19H968.896V594.038L971.536 589.19H973.168V596.918H971.584V591.91L968.848 596.918ZM978.725 596.918H975.061V589.19H978.629C979.387 589.19 979.963 589.377 980.357 589.75C980.763 590.113 980.965 590.582 980.965 591.158C980.965 591.606 980.843 591.985 980.597 592.294C980.363 592.593 980.043 592.801 979.637 592.918C980.064 593.014 980.416 593.244 980.693 593.606C980.971 593.958 981.109 594.364 981.109 594.822C981.109 595.452 980.907 595.958 980.501 596.342C980.107 596.726 979.515 596.918 978.725 596.918ZM978.389 595.574C979.115 595.574 979.477 595.254 979.477 594.614C979.477 594.337 979.381 594.102 979.189 593.91C979.008 593.718 978.741 593.622 978.389 593.622H976.661V595.574H978.389ZM978.325 592.294C978.987 592.294 979.317 592.001 979.317 591.414C979.317 591.148 979.232 590.934 979.061 590.774C978.901 590.604 978.656 590.518 978.325 590.518H976.661V592.294H978.325ZM988.266 595.942C987.679 596.721 986.863 597.11 985.818 597.11C984.773 597.11 983.951 596.721 983.354 595.942C982.767 595.164 982.474 594.198 982.474 593.046C982.474 591.894 982.767 590.934 983.354 590.166C983.941 589.388 984.762 588.998 985.818 588.998C986.874 588.998 987.695 589.388 988.282 590.166C988.869 590.934 989.162 591.894 989.162 593.046C989.162 594.198 988.863 595.164 988.266 595.942ZM984.554 594.934C984.842 595.446 985.263 595.702 985.818 595.702C986.373 595.702 986.794 595.446 987.082 594.934C987.37 594.422 987.514 593.793 987.514 593.046C987.514 592.3 987.37 591.676 987.082 591.174C986.794 590.662 986.373 590.406 985.818 590.406C985.263 590.406 984.842 590.662 984.554 591.174C984.266 591.676 984.122 592.3 984.122 593.046C984.122 593.793 984.266 594.422 984.554 594.934ZM996.031 596.07C995.476 596.764 994.692 597.11 993.679 597.11C992.665 597.11 991.844 596.732 991.215 595.974C990.596 595.206 990.287 594.23 990.287 593.046C990.287 591.862 990.596 590.892 991.215 590.134C991.833 589.377 992.655 588.998 993.679 588.998C994.692 588.998 995.476 589.345 996.031 590.038L995.215 591.126C994.841 590.646 994.383 590.406 993.839 590.406C993.252 590.406 992.788 590.657 992.447 591.158C992.105 591.66 991.935 592.289 991.935 593.046C991.935 593.814 992.105 594.449 992.447 594.95C992.788 595.452 993.252 595.702 993.839 595.702C994.372 595.702 994.831 595.462 995.215 594.982L996.031 596.07ZM999.999 596.918H998.399V590.582H996.655V589.19H1001.74V590.582H999.999V596.918ZM1008.38 595.942C1007.79 596.721 1006.97 597.11 1005.93 597.11C1004.88 597.11 1004.06 596.721 1003.46 595.942C1002.88 595.164 1002.58 594.198 1002.58 593.046C1002.58 591.894 1002.88 590.934 1003.46 590.166C1004.05 589.388 1004.87 588.998 1005.93 588.998C1006.98 588.998 1007.8 589.388 1008.39 590.166C1008.98 590.934 1009.27 591.894 1009.27 593.046C1009.27 594.198 1008.97 595.164 1008.38 595.942ZM1004.66 594.934C1004.95 595.446 1005.37 595.702 1005.93 595.702C1006.48 595.702 1006.9 595.446 1007.19 594.934C1007.48 594.422 1007.62 593.793 1007.62 593.046C1007.62 592.3 1007.48 591.676 1007.19 591.174C1006.9 590.662 1006.48 590.406 1005.93 590.406C1005.37 590.406 1004.95 590.662 1004.66 591.174C1004.38 591.676 1004.23 592.3 1004.23 593.046C1004.23 593.793 1004.38 594.422 1004.66 594.934ZM1017 596.918H1015.13L1013.31 593.686L1012.38 594.934V596.918H1010.78V589.19H1012.38V592.982L1015.1 589.19H1016.96L1014.4 592.662L1017 596.918Z" fill="#444444"/>
</svg>
