<svg width="1190" height="600" viewBox="0 0 1190 600" fill="none" xmlns="http://www.w3.org/2000/svg">
<circle cx="253.672" cy="302.099" r="4" fill="#444444"/>
<path d="M243.406 318.099H241.834L239.77 314.799L239.17 315.711V318.099H237.838V310.095H239.17V313.947L241.654 310.095H243.214L240.598 313.875L243.406 318.099ZM248.294 318.099H247.106V317.511C246.754 317.999 246.246 318.243 245.582 318.243C245.086 318.243 244.666 318.071 244.322 317.727C243.978 317.375 243.806 316.903 243.806 316.311C243.806 315.719 243.978 315.259 244.322 314.931C244.666 314.595 245.086 314.427 245.582 314.427C246.262 314.427 246.77 314.659 247.106 315.123V314.283C247.106 313.931 247.006 313.659 246.806 313.467C246.614 313.275 246.338 313.179 245.978 313.179C245.45 313.179 244.97 313.399 244.538 313.839L244.07 312.999C244.63 312.439 245.338 312.159 246.194 312.159C246.834 312.159 247.342 312.323 247.718 312.651C248.102 312.971 248.294 313.467 248.294 314.139V318.099ZM246.014 317.415C246.494 317.415 246.858 317.203 247.106 316.779V315.903C246.994 315.703 246.838 315.547 246.638 315.435C246.438 315.315 246.23 315.255 246.014 315.255C245.71 315.255 245.466 315.355 245.282 315.555C245.098 315.755 245.006 316.015 245.006 316.335C245.006 316.655 245.098 316.915 245.282 317.115C245.466 317.315 245.71 317.415 246.014 317.415ZM251.496 318.243C250.504 318.243 249.744 317.931 249.216 317.307L249.804 316.575C250.22 317.039 250.776 317.271 251.472 317.271C251.832 317.271 252.112 317.195 252.312 317.043C252.52 316.891 252.624 316.687 252.624 316.431C252.624 315.911 252.22 315.651 251.412 315.651H250.332V314.691H251.388C251.748 314.691 252.028 314.623 252.228 314.487C252.436 314.343 252.54 314.143 252.54 313.887C252.54 313.655 252.432 313.471 252.216 313.335C252.008 313.199 251.732 313.131 251.388 313.131C250.756 313.131 250.26 313.355 249.9 313.803L249.288 313.083C249.816 312.467 250.504 312.159 251.352 312.159C252.08 312.159 252.66 312.299 253.092 312.579C253.524 312.859 253.74 313.243 253.74 313.731C253.74 314.075 253.608 314.379 253.344 314.643C253.088 314.899 252.78 315.063 252.42 315.135C252.796 315.175 253.124 315.319 253.404 315.567C253.692 315.815 253.836 316.135 253.836 316.527C253.836 317.031 253.624 317.443 253.2 317.763C252.784 318.083 252.216 318.243 251.496 318.243ZM259.134 318.099H257.946V317.511C257.594 317.999 257.086 318.243 256.422 318.243C255.926 318.243 255.506 318.071 255.162 317.727C254.818 317.375 254.646 316.903 254.646 316.311C254.646 315.719 254.818 315.259 255.162 314.931C255.506 314.595 255.926 314.427 256.422 314.427C257.102 314.427 257.61 314.659 257.946 315.123V314.283C257.946 313.931 257.846 313.659 257.646 313.467C257.454 313.275 257.178 313.179 256.818 313.179C256.29 313.179 255.81 313.399 255.378 313.839L254.91 312.999C255.47 312.439 256.178 312.159 257.034 312.159C257.674 312.159 258.182 312.323 258.558 312.651C258.942 312.971 259.134 313.467 259.134 314.139V318.099ZM256.854 317.415C257.334 317.415 257.698 317.203 257.946 316.779V315.903C257.834 315.703 257.678 315.547 257.478 315.435C257.278 315.315 257.07 315.255 256.854 315.255C256.55 315.255 256.306 315.355 256.122 315.555C255.938 315.755 255.846 316.015 255.846 316.335C255.846 316.655 255.938 316.915 256.122 317.115C256.306 317.315 256.55 317.415 256.854 317.415ZM261.748 318.099H260.548V312.303H261.748V314.583H263.764V312.303H264.952V318.099H263.764V315.627H261.748V318.099ZM266.372 312.303H267.572V314.427H268.856C269.488 314.427 269.968 314.603 270.296 314.955C270.632 315.307 270.8 315.747 270.8 316.275C270.8 316.795 270.628 317.231 270.284 317.583C269.948 317.927 269.472 318.099 268.856 318.099H266.372V312.303ZM268.712 315.435H267.572V317.091H268.712C268.984 317.091 269.196 317.015 269.348 316.863C269.5 316.711 269.576 316.511 269.576 316.263C269.576 316.023 269.5 315.827 269.348 315.675C269.196 315.515 268.984 315.435 268.712 315.435Z" fill="#444444"/>
<circle cx="191.5" cy="310.099" r="4" fill="#444444"/>
<path d="M177.345 326.243C176.353 326.243 175.561 325.859 174.969 325.091C174.377 324.315 174.081 323.319 174.081 322.103C174.081 320.879 174.377 319.883 174.969 319.115C175.561 318.347 176.353 317.963 177.345 317.963C178.473 317.963 179.317 318.551 179.877 319.727L178.773 320.219C178.461 319.499 177.985 319.139 177.345 319.139C176.769 319.139 176.305 319.415 175.953 319.967C175.609 320.519 175.437 321.231 175.437 322.103C175.437 322.967 175.609 323.675 175.953 324.227C176.305 324.779 176.769 325.055 177.345 325.055C177.681 325.055 177.969 324.947 178.209 324.731C178.457 324.515 178.649 324.231 178.785 323.879L179.889 324.371C179.345 325.619 178.497 326.243 177.345 326.243ZM185.072 326.099H183.884V325.511C183.532 325.999 183.024 326.243 182.36 326.243C181.864 326.243 181.444 326.071 181.1 325.727C180.756 325.375 180.584 324.903 180.584 324.311C180.584 323.719 180.756 323.259 181.1 322.931C181.444 322.595 181.864 322.427 182.36 322.427C183.04 322.427 183.548 322.659 183.884 323.123V322.283C183.884 321.931 183.784 321.659 183.584 321.467C183.392 321.275 183.116 321.179 182.756 321.179C182.228 321.179 181.748 321.399 181.316 321.839L180.848 320.999C181.408 320.439 182.116 320.159 182.972 320.159C183.612 320.159 184.12 320.323 184.496 320.651C184.88 320.971 185.072 321.467 185.072 322.139V326.099ZM182.792 325.415C183.272 325.415 183.636 325.203 183.884 324.779V323.903C183.772 323.703 183.616 323.547 183.416 323.435C183.216 323.315 183.008 323.255 182.792 323.255C182.488 323.255 182.244 323.355 182.06 323.555C181.876 323.755 181.784 324.015 181.784 324.335C181.784 324.655 181.876 324.915 182.06 325.115C182.244 325.315 182.488 325.415 182.792 325.415ZM192.185 326.099H191.009V322.319L189.581 326.099H189.101L187.685 322.319V326.099H186.485V320.303H188.021L189.341 323.795L190.661 320.303H192.185V326.099ZM197.787 326.099H196.599V325.511C196.247 325.999 195.739 326.243 195.075 326.243C194.579 326.243 194.159 326.071 193.815 325.727C193.471 325.375 193.299 324.903 193.299 324.311C193.299 323.719 193.471 323.259 193.815 322.931C194.159 322.595 194.579 322.427 195.075 322.427C195.755 322.427 196.263 322.659 196.599 323.123V322.283C196.599 321.931 196.499 321.659 196.299 321.467C196.107 321.275 195.831 321.179 195.471 321.179C194.943 321.179 194.463 321.399 194.031 321.839L193.563 320.999C194.123 320.439 194.831 320.159 195.687 320.159C196.327 320.159 196.835 320.323 197.211 320.651C197.595 320.971 197.787 321.467 197.787 322.139V326.099ZM195.507 325.415C195.987 325.415 196.351 325.203 196.599 324.779V323.903C196.487 323.703 196.331 323.547 196.131 323.435C195.931 323.315 195.723 323.255 195.507 323.255C195.203 323.255 194.959 323.355 194.775 323.555C194.591 323.755 194.499 324.015 194.499 324.335C194.499 324.655 194.591 324.915 194.775 325.115C194.959 325.315 195.203 325.415 195.507 325.415ZM203.424 325.415C203.048 325.967 202.536 326.243 201.888 326.243C201.24 326.243 200.744 325.935 200.4 325.319V328.307H199.2V320.303H200.4V321.071C200.568 320.783 200.784 320.559 201.048 320.399C201.312 320.239 201.592 320.159 201.888 320.159C202.544 320.159 203.06 320.431 203.436 320.975C203.812 321.519 204 322.259 204 323.195C204 324.123 203.808 324.863 203.424 325.415ZM201.528 325.187C201.928 325.187 202.232 325.003 202.44 324.635C202.656 324.259 202.764 323.779 202.764 323.195C202.764 322.611 202.656 322.135 202.44 321.767C202.232 321.399 201.928 321.215 201.528 321.215C201.304 321.215 201.084 321.291 200.868 321.443C200.66 321.595 200.504 321.783 200.4 322.007V324.383C200.504 324.607 200.66 324.799 200.868 324.959C201.084 325.111 201.304 325.187 201.528 325.187ZM209.294 326.099H208.106V325.511C207.754 325.999 207.246 326.243 206.582 326.243C206.086 326.243 205.666 326.071 205.322 325.727C204.978 325.375 204.806 324.903 204.806 324.311C204.806 323.719 204.978 323.259 205.322 322.931C205.666 322.595 206.086 322.427 206.582 322.427C207.262 322.427 207.77 322.659 208.106 323.123V322.283C208.106 321.931 208.006 321.659 207.806 321.467C207.614 321.275 207.338 321.179 206.978 321.179C206.45 321.179 205.97 321.399 205.538 321.839L205.07 320.999C205.63 320.439 206.338 320.159 207.194 320.159C207.834 320.159 208.342 320.323 208.718 320.651C209.102 320.971 209.294 321.467 209.294 322.139V326.099ZM207.014 325.415C207.494 325.415 207.858 325.203 208.106 324.779V323.903C207.994 323.703 207.838 323.547 207.638 323.435C207.438 323.315 207.23 323.255 207.014 323.255C206.71 323.255 206.466 323.355 206.282 323.555C206.098 323.755 206.006 324.015 206.006 324.335C206.006 324.655 206.098 324.915 206.282 325.115C206.466 325.315 206.71 325.415 207.014 325.415Z" fill="#444444"/>
<circle cx="196.172" cy="263.961" r="4" fill="#444444"/>
<path d="M173.083 279.961H171.751V276.433H168.823V279.961H167.491V271.957H168.823V275.257H171.751V271.957H173.083V279.961ZM175.288 280.093C175.072 280.093 174.884 280.013 174.724 279.853C174.564 279.693 174.484 279.501 174.484 279.277C174.484 279.061 174.564 278.873 174.724 278.713C174.884 278.553 175.072 278.473 175.288 278.473C175.512 278.473 175.7 278.553 175.852 278.713C176.012 278.873 176.092 279.061 176.092 279.277C176.092 279.501 176.012 279.693 175.852 279.853C175.7 280.013 175.512 280.093 175.288 280.093ZM185.645 279.961H184.313V276.433H181.385V279.961H180.053V271.957H181.385V275.257H184.313V271.957H185.645V279.961ZM191.162 279.229C190.722 279.813 190.11 280.105 189.326 280.105C188.542 280.105 187.926 279.813 187.478 279.229C187.038 278.645 186.818 277.921 186.818 277.057C186.818 276.193 187.038 275.473 187.478 274.897C187.918 274.313 188.534 274.021 189.326 274.021C190.118 274.021 190.734 274.313 191.174 274.897C191.614 275.473 191.834 276.193 191.834 277.057C191.834 277.921 191.61 278.645 191.162 279.229ZM188.378 278.473C188.594 278.857 188.91 279.049 189.326 279.049C189.742 279.049 190.058 278.857 190.274 278.473C190.49 278.089 190.598 277.617 190.598 277.057C190.598 276.497 190.49 276.029 190.274 275.653C190.058 275.269 189.742 275.077 189.326 275.077C188.91 275.077 188.594 275.269 188.378 275.653C188.162 276.029 188.054 276.497 188.054 277.057C188.054 277.617 188.162 278.089 188.378 278.473ZM195.714 279.961H192.966V274.165H195.642C196.21 274.165 196.642 274.305 196.938 274.585C197.242 274.857 197.394 275.209 197.394 275.641C197.394 275.977 197.302 276.261 197.118 276.493C196.942 276.717 196.702 276.873 196.398 276.961C196.718 277.033 196.982 277.205 197.19 277.477C197.398 277.741 197.502 278.045 197.502 278.389C197.502 278.861 197.35 279.241 197.046 279.529C196.75 279.817 196.306 279.961 195.714 279.961ZM195.462 278.953C196.006 278.953 196.278 278.713 196.278 278.233C196.278 278.025 196.206 277.849 196.062 277.705C195.926 277.561 195.726 277.489 195.462 277.489H194.166V278.953H195.462ZM195.414 276.493C195.91 276.493 196.158 276.273 196.158 275.833C196.158 275.633 196.094 275.473 195.966 275.353C195.846 275.225 195.662 275.161 195.414 275.161H194.166V276.493H195.414ZM202.413 274.165V275.209H200.013V279.961H198.813V274.165H202.413ZM207.393 279.229C206.953 279.813 206.341 280.105 205.557 280.105C204.773 280.105 204.157 279.813 203.709 279.229C203.269 278.645 203.049 277.921 203.049 277.057C203.049 276.193 203.269 275.473 203.709 274.897C204.149 274.313 204.765 274.021 205.557 274.021C206.349 274.021 206.965 274.313 207.405 274.897C207.845 275.473 208.065 276.193 208.065 277.057C208.065 277.921 207.841 278.645 207.393 279.229ZM204.609 278.473C204.825 278.857 205.141 279.049 205.557 279.049C205.973 279.049 206.289 278.857 206.505 278.473C206.721 278.089 206.829 277.617 206.829 277.057C206.829 276.497 206.721 276.029 206.505 275.653C206.289 275.269 205.973 275.077 205.557 275.077C205.141 275.077 204.825 275.269 204.609 275.653C204.393 276.029 204.285 276.497 204.285 277.057C204.285 277.617 204.393 278.089 204.609 278.473ZM213.42 279.277C213.044 279.829 212.532 280.105 211.884 280.105C211.236 280.105 210.74 279.797 210.396 279.181V282.169H209.196V274.165H210.396V274.933C210.564 274.645 210.78 274.421 211.044 274.261C211.308 274.101 211.588 274.021 211.884 274.021C212.54 274.021 213.056 274.293 213.432 274.837C213.808 275.381 213.996 276.121 213.996 277.057C213.996 277.985 213.804 278.725 213.42 279.277ZM211.524 279.049C211.924 279.049 212.228 278.865 212.436 278.497C212.652 278.121 212.76 277.641 212.76 277.057C212.76 276.473 212.652 275.997 212.436 275.629C212.228 275.261 211.924 275.077 211.524 275.077C211.3 275.077 211.08 275.153 210.864 275.305C210.656 275.457 210.5 275.645 210.396 275.869V278.245C210.5 278.469 210.656 278.661 210.864 278.821C211.08 278.973 211.3 279.049 211.524 279.049ZM219.159 279.229C218.719 279.813 218.107 280.105 217.323 280.105C216.539 280.105 215.923 279.813 215.475 279.229C215.035 278.645 214.815 277.921 214.815 277.057C214.815 276.193 215.035 275.473 215.475 274.897C215.915 274.313 216.531 274.021 217.323 274.021C218.115 274.021 218.731 274.313 219.171 274.897C219.611 275.473 219.831 276.193 219.831 277.057C219.831 277.921 219.607 278.645 219.159 279.229ZM216.375 278.473C216.591 278.857 216.907 279.049 217.323 279.049C217.739 279.049 218.055 278.857 218.271 278.473C218.487 278.089 218.595 277.617 218.595 277.057C218.595 276.497 218.487 276.029 218.271 275.653C218.055 275.269 217.739 275.077 217.323 275.077C216.907 275.077 216.591 275.269 216.375 275.653C216.159 276.029 216.051 276.497 216.051 277.057C216.051 277.617 216.159 278.089 216.375 278.473ZM220.47 281.437V279.013C220.742 278.957 220.942 278.817 221.07 278.593C221.198 278.369 221.294 277.905 221.358 277.201L221.622 274.165H225.366V278.917H225.99V281.437H224.79V279.961H221.658V281.437H220.47ZM222.714 275.209L222.558 277.297C222.502 278.017 222.286 278.557 221.91 278.917H224.178V275.209H222.714Z" fill="#444444"/>
<circle cx="223.672" cy="368.496" r="4" fill="#444444"/>
<path d="M206.953 383.476C206.385 384.252 205.605 384.64 204.613 384.64C203.621 384.64 202.837 384.252 202.261 383.476C201.693 382.7 201.409 381.708 201.409 380.5C201.409 379.292 201.693 378.3 202.261 377.524C202.837 376.748 203.621 376.36 204.613 376.36C205.605 376.36 206.385 376.748 206.953 377.524C207.529 378.3 207.817 379.292 207.817 380.5C207.817 381.708 207.529 382.7 206.953 383.476ZM204.613 383.452C205.189 383.452 205.641 383.176 205.969 382.624C206.297 382.064 206.461 381.356 206.461 380.5C206.461 379.636 206.297 378.928 205.969 378.376C205.641 377.816 205.189 377.536 204.613 377.536C204.029 377.536 203.573 377.812 203.245 378.364C202.925 378.916 202.765 379.628 202.765 380.5C202.765 381.364 202.925 382.072 203.245 382.624C203.573 383.176 204.029 383.452 204.613 383.452ZM213.221 383.812C212.845 384.364 212.333 384.64 211.685 384.64C211.037 384.64 210.541 384.332 210.197 383.716V386.704H208.997V378.7H210.197V379.468C210.365 379.18 210.581 378.956 210.845 378.796C211.109 378.636 211.389 378.556 211.685 378.556C212.341 378.556 212.857 378.828 213.233 379.372C213.609 379.916 213.797 380.656 213.797 381.592C213.797 382.52 213.605 383.26 213.221 383.812ZM211.325 383.584C211.725 383.584 212.029 383.4 212.237 383.032C212.453 382.656 212.561 382.176 212.561 381.592C212.561 381.008 212.453 380.532 212.237 380.164C212.029 379.796 211.725 379.612 211.325 379.612C211.101 379.612 210.881 379.688 210.665 379.84C210.457 379.992 210.301 380.18 210.197 380.404V382.78C210.301 383.004 210.457 383.196 210.665 383.356C210.881 383.508 211.101 383.584 211.325 383.584ZM217.219 384.64C216.427 384.64 215.795 384.36 215.323 383.8C214.851 383.24 214.615 382.504 214.615 381.592C214.615 380.728 214.839 380.008 215.287 379.432C215.743 378.848 216.347 378.556 217.099 378.556C217.859 378.556 218.451 378.844 218.875 379.42C219.299 379.996 219.511 380.736 219.511 381.64V381.988H215.827C215.851 382.484 215.995 382.888 216.259 383.2C216.523 383.504 216.883 383.656 217.339 383.656C217.859 383.656 218.295 383.448 218.647 383.032L219.223 383.752C218.703 384.344 218.035 384.64 217.219 384.64ZM218.347 381.136C218.339 380.712 218.231 380.34 218.023 380.02C217.823 379.692 217.511 379.528 217.087 379.528C216.679 379.528 216.371 379.692 216.163 380.02C215.955 380.348 215.839 380.72 215.815 381.136H218.347ZM221.787 384.496H220.587V378.7H221.787V380.98H223.803V378.7H224.991V384.496H223.803V382.024H221.787V384.496ZM228.619 383.584C229.035 383.584 229.351 383.392 229.567 383.008C229.783 382.616 229.891 382.136 229.891 381.568C229.891 381.024 229.783 380.564 229.567 380.188C229.351 379.804 229.035 379.612 228.619 379.612C228.211 379.612 227.899 379.804 227.683 380.188C227.467 380.564 227.359 381.024 227.359 381.568C227.359 382.136 227.467 382.616 227.683 383.008C227.899 383.392 228.211 383.584 228.619 383.584ZM228.619 384.64C227.819 384.64 227.203 384.336 226.771 383.728C226.339 383.112 226.123 382.312 226.123 381.328C226.123 379.848 226.303 378.804 226.663 378.196C227.031 377.588 227.687 377.204 228.631 377.044C229.055 376.972 229.347 376.896 229.507 376.816C229.675 376.736 229.759 376.628 229.759 376.492H230.947C230.947 376.756 230.883 376.988 230.755 377.188C230.627 377.38 230.447 377.532 230.215 377.644C229.991 377.756 229.783 377.84 229.591 377.896C229.399 377.952 229.179 378 228.931 378.04C227.827 378.216 227.227 378.692 227.131 379.468C227.299 379.188 227.531 378.968 227.827 378.808C228.123 378.64 228.455 378.556 228.823 378.556C229.535 378.556 230.095 378.848 230.503 379.432C230.919 380.016 231.127 380.732 231.127 381.58C231.127 382.436 230.907 383.16 230.467 383.752C230.027 384.344 229.411 384.64 228.619 384.64ZM232.09 386.764L232.27 385.708C232.374 385.764 232.502 385.792 232.654 385.792C232.974 385.792 233.194 385.632 233.314 385.312L233.554 384.616L231.61 378.7H232.882L234.166 383.056L235.462 378.7H236.734L234.442 385.588C234.29 386.052 234.074 386.376 233.794 386.56C233.522 386.752 233.17 386.848 232.738 386.848C232.49 386.848 232.274 386.82 232.09 386.764ZM241.674 383.812C241.298 384.364 240.786 384.64 240.138 384.64C239.49 384.64 238.994 384.332 238.65 383.716V386.704H237.45V378.7H238.65V379.468C238.818 379.18 239.034 378.956 239.298 378.796C239.562 378.636 239.842 378.556 240.138 378.556C240.794 378.556 241.31 378.828 241.686 379.372C242.062 379.916 242.25 380.656 242.25 381.592C242.25 382.52 242.058 383.26 241.674 383.812ZM239.778 383.584C240.178 383.584 240.482 383.4 240.69 383.032C240.906 382.656 241.014 382.176 241.014 381.592C241.014 381.008 240.906 380.532 240.69 380.164C240.482 379.796 240.178 379.612 239.778 379.612C239.554 379.612 239.334 379.688 239.118 379.84C238.91 379.992 238.754 380.18 238.65 380.404V382.78C238.754 383.004 238.91 383.196 239.118 383.356C239.334 383.508 239.554 383.584 239.778 383.584ZM246.956 378.7V379.744H244.556V384.496H243.356V378.7H246.956Z" fill="#444444"/>
<circle cx="257.672" cy="340.099" r="4" fill="#444444"/>
<path d="M249.596 356.243C249.028 356.243 248.564 356.091 248.204 355.787L248.612 354.695C248.868 354.927 249.156 355.043 249.476 355.043C249.7 355.043 249.884 354.983 250.028 354.863C250.172 354.743 250.308 354.547 250.436 354.275L250.568 353.891L248.144 348.095H249.62L251.288 352.343L252.956 348.095H254.42L251.636 354.803C251.428 355.299 251.164 355.663 250.844 355.895C250.524 356.127 250.108 356.243 249.596 356.243ZM256.334 350.159C256.886 350.159 257.322 350.463 257.642 351.071V348.095H258.842V351.071C259.162 350.463 259.598 350.159 260.15 350.159C260.726 350.159 261.178 350.431 261.506 350.975C261.842 351.519 262.01 352.259 262.01 353.195C262.01 354.123 261.842 354.863 261.506 355.415C261.178 355.967 260.726 356.243 260.15 356.243C259.59 356.243 259.154 355.935 258.842 355.319V358.307H257.642V355.319C257.498 355.615 257.31 355.843 257.078 356.003C256.846 356.163 256.598 356.243 256.334 356.243C255.758 356.243 255.302 355.971 254.966 355.427C254.638 354.875 254.474 354.131 254.474 353.195C254.474 352.259 254.638 351.519 254.966 350.975C255.302 350.431 255.758 350.159 256.334 350.159ZM256.718 351.215C256.39 351.215 256.138 351.399 255.962 351.767C255.786 352.135 255.698 352.611 255.698 353.195C255.698 353.771 255.79 354.247 255.974 354.623C256.158 354.999 256.414 355.187 256.742 355.187C256.918 355.187 257.09 355.111 257.258 354.959C257.426 354.799 257.554 354.607 257.642 354.383V352.007C257.554 351.783 257.422 351.595 257.246 351.443C257.078 351.291 256.902 351.215 256.718 351.215ZM259.742 355.187C260.07 355.187 260.326 354.999 260.51 354.623C260.694 354.247 260.786 353.771 260.786 353.195C260.786 352.611 260.698 352.135 260.522 351.767C260.346 351.399 260.094 351.215 259.766 351.215C259.582 351.215 259.402 351.291 259.226 351.443C259.058 351.595 258.93 351.783 258.842 352.007V354.383C258.93 354.607 259.058 354.799 259.226 354.959C259.394 355.111 259.566 355.187 259.742 355.187ZM267.466 356.099H266.278V355.511C265.926 355.999 265.418 356.243 264.754 356.243C264.258 356.243 263.838 356.071 263.494 355.727C263.15 355.375 262.978 354.903 262.978 354.311C262.978 353.719 263.15 353.259 263.494 352.931C263.838 352.595 264.258 352.427 264.754 352.427C265.434 352.427 265.942 352.659 266.278 353.123V352.283C266.278 351.931 266.178 351.659 265.978 351.467C265.786 351.275 265.51 351.179 265.15 351.179C264.622 351.179 264.142 351.399 263.71 351.839L263.242 350.999C263.802 350.439 264.51 350.159 265.366 350.159C266.006 350.159 266.514 350.323 266.89 350.651C267.274 350.971 267.466 351.467 267.466 352.139V356.099ZM265.186 355.415C265.666 355.415 266.03 355.203 266.278 354.779V353.903C266.166 353.703 266.01 353.547 265.81 353.435C265.61 353.315 265.402 353.255 265.186 353.255C264.882 353.255 264.638 353.355 264.454 353.555C264.27 353.755 264.178 354.015 264.178 354.335C264.178 354.655 264.27 354.915 264.454 355.115C264.638 355.315 264.882 355.415 265.186 355.415Z" fill="#444444"/>
</svg>
