<svg width="1190" height="600" viewBox="0 0 1190 600" fill="none" xmlns="http://www.w3.org/2000/svg">
<circle cx="515" cy="457.66" r="4" fill="#444444"/>
<path d="M489.809 473.66H488.477V470.132H485.549V473.66H484.217V465.656H485.549V468.956H488.477V465.656H489.809V473.66ZM495.327 472.928C494.887 473.512 494.275 473.804 493.491 473.804C492.707 473.804 492.091 473.512 491.643 472.928C491.203 472.344 490.983 471.62 490.983 470.756C490.983 469.892 491.203 469.172 491.643 468.596C492.083 468.012 492.699 467.72 493.491 467.72C494.283 467.72 494.899 468.012 495.339 468.596C495.779 469.172 495.999 469.892 495.999 470.756C495.999 471.62 495.775 472.344 495.327 472.928ZM492.543 472.172C492.759 472.556 493.075 472.748 493.491 472.748C493.907 472.748 494.223 472.556 494.439 472.172C494.655 471.788 494.763 471.316 494.763 470.756C494.763 470.196 494.655 469.728 494.439 469.352C494.223 468.968 493.907 468.776 493.491 468.776C493.075 468.776 492.759 468.968 492.543 469.352C492.327 469.728 492.219 470.196 492.219 470.756C492.219 471.316 492.327 471.788 492.543 472.172ZM499.878 473.66H497.13V467.864H499.806C500.374 467.864 500.806 468.004 501.102 468.284C501.406 468.556 501.558 468.908 501.558 469.34C501.558 469.676 501.466 469.96 501.282 470.192C501.106 470.416 500.866 470.572 500.562 470.66C500.882 470.732 501.146 470.904 501.354 471.176C501.562 471.44 501.666 471.744 501.666 472.088C501.666 472.56 501.514 472.94 501.21 473.228C500.914 473.516 500.47 473.66 499.878 473.66ZM499.626 472.652C500.17 472.652 500.442 472.412 500.442 471.932C500.442 471.724 500.37 471.548 500.226 471.404C500.09 471.26 499.89 471.188 499.626 471.188H498.33V472.652H499.626ZM499.578 470.192C500.074 470.192 500.322 469.972 500.322 469.532C500.322 469.332 500.258 469.172 500.13 469.052C500.01 468.924 499.826 468.86 499.578 468.86H498.33V470.192H499.578ZM507.034 472.928C506.594 473.512 505.982 473.804 505.198 473.804C504.414 473.804 503.798 473.512 503.35 472.928C502.91 472.344 502.69 471.62 502.69 470.756C502.69 469.892 502.91 469.172 503.35 468.596C503.79 468.012 504.406 467.72 505.198 467.72C505.99 467.72 506.606 468.012 507.046 468.596C507.486 469.172 507.706 469.892 507.706 470.756C507.706 471.62 507.482 472.344 507.034 472.928ZM504.25 472.172C504.466 472.556 504.782 472.748 505.198 472.748C505.614 472.748 505.93 472.556 506.146 472.172C506.362 471.788 506.47 471.316 506.47 470.756C506.47 470.196 506.362 469.728 506.146 469.352C505.93 468.968 505.614 468.776 505.198 468.776C504.782 468.776 504.466 468.968 504.25 469.352C504.034 469.728 503.926 470.196 503.926 470.756C503.926 471.316 504.034 471.788 504.25 472.172ZM512.857 473.024C512.441 473.544 511.853 473.804 511.093 473.804C510.333 473.804 509.717 473.52 509.245 472.952C508.781 472.376 508.549 471.644 508.549 470.756C508.549 469.868 508.781 469.14 509.245 468.572C509.709 468.004 510.325 467.72 511.093 467.72C511.853 467.72 512.441 467.98 512.857 468.5L512.245 469.316C511.965 468.956 511.621 468.776 511.213 468.776C510.773 468.776 510.425 468.964 510.169 469.34C509.913 469.716 509.785 470.188 509.785 470.756C509.785 471.332 509.913 471.808 510.169 472.184C510.425 472.56 510.773 472.748 511.213 472.748C511.613 472.748 511.957 472.568 512.245 472.208L512.857 473.024ZM514.981 473.66H513.817V467.864H515.017V471.5L516.997 467.864H518.221V473.66H517.033V469.904L514.981 473.66ZM521.85 472.748C522.266 472.748 522.582 472.556 522.798 472.172C523.014 471.78 523.122 471.3 523.122 470.732C523.122 470.188 523.014 469.728 522.798 469.352C522.582 468.968 522.266 468.776 521.85 468.776C521.442 468.776 521.13 468.968 520.914 469.352C520.698 469.728 520.59 470.188 520.59 470.732C520.59 471.3 520.698 471.78 520.914 472.172C521.13 472.556 521.442 472.748 521.85 472.748ZM521.85 473.804C521.05 473.804 520.434 473.5 520.002 472.892C519.57 472.276 519.354 471.476 519.354 470.492C519.354 469.012 519.534 467.968 519.894 467.36C520.262 466.752 520.918 466.368 521.862 466.208C522.286 466.136 522.578 466.06 522.738 465.98C522.906 465.9 522.99 465.792 522.99 465.656H524.178C524.178 465.92 524.114 466.152 523.986 466.352C523.858 466.544 523.678 466.696 523.446 466.808C523.222 466.92 523.014 467.004 522.822 467.06C522.63 467.116 522.41 467.164 522.162 467.204C521.058 467.38 520.458 467.856 520.362 468.632C520.53 468.352 520.762 468.132 521.058 467.972C521.354 467.804 521.686 467.72 522.054 467.72C522.766 467.72 523.326 468.012 523.734 468.596C524.15 469.18 524.358 469.896 524.358 470.744C524.358 471.6 524.138 472.324 523.698 472.916C523.258 473.508 522.642 473.804 521.85 473.804ZM526.688 473.66H525.524V467.864H526.724V471.5L528.704 467.864H529.928V473.66H528.74V469.904L526.688 473.66ZM535.573 472.976C535.197 473.528 534.685 473.804 534.037 473.804C533.389 473.804 532.893 473.496 532.549 472.88V475.868H531.349V467.864H532.549V468.632C532.717 468.344 532.933 468.12 533.197 467.96C533.461 467.8 533.741 467.72 534.037 467.72C534.693 467.72 535.209 467.992 535.585 468.536C535.961 469.08 536.149 469.82 536.149 470.756C536.149 471.684 535.957 472.424 535.573 472.976ZM533.677 472.748C534.077 472.748 534.381 472.564 534.589 472.196C534.805 471.82 534.913 471.34 534.913 470.756C534.913 470.172 534.805 469.696 534.589 469.328C534.381 468.96 534.077 468.776 533.677 468.776C533.453 468.776 533.233 468.852 533.017 469.004C532.809 469.156 532.653 469.344 532.549 469.568V471.944C532.653 472.168 532.809 472.36 533.017 472.52C533.233 472.672 533.453 472.748 533.677 472.748ZM541.275 473.024C540.859 473.544 540.271 473.804 539.511 473.804C538.751 473.804 538.135 473.52 537.663 472.952C537.199 472.376 536.967 471.644 536.967 470.756C536.967 469.868 537.199 469.14 537.663 468.572C538.127 468.004 538.743 467.72 539.511 467.72C540.271 467.72 540.859 467.98 541.275 468.5L540.663 469.316C540.383 468.956 540.039 468.776 539.631 468.776C539.191 468.776 538.843 468.964 538.587 469.34C538.331 469.716 538.203 470.188 538.203 470.756C538.203 471.332 538.331 471.808 538.587 472.184C538.843 472.56 539.191 472.748 539.631 472.748C540.031 472.748 540.375 472.568 540.663 472.208L541.275 473.024ZM546.903 473.66H545.499L544.131 471.236L543.435 472.172V473.66H542.235V467.864H543.435V470.708L545.475 467.864H546.867L544.947 470.468L546.903 473.66Z" fill="#444444"/>
<circle cx="638.5" cy="459.66" r="4" fill="#444444"/>
<path d="M616.594 475.66H615.022L612.958 472.36L612.358 473.272V475.66H611.026V467.656H612.358V471.508L614.842 467.656H616.402L613.786 471.436L616.594 475.66ZM621.612 474.976C621.236 475.528 620.724 475.804 620.076 475.804C619.428 475.804 618.932 475.496 618.588 474.88V477.868H617.388V469.864H618.588V470.632C618.756 470.344 618.972 470.12 619.236 469.96C619.5 469.8 619.78 469.72 620.076 469.72C620.732 469.72 621.248 469.992 621.624 470.536C622 471.08 622.188 471.82 622.188 472.756C622.188 473.684 621.996 474.424 621.612 474.976ZM619.716 474.748C620.116 474.748 620.42 474.564 620.628 474.196C620.844 473.82 620.952 473.34 620.952 472.756C620.952 472.172 620.844 471.696 620.628 471.328C620.42 470.96 620.116 470.776 619.716 470.776C619.492 470.776 619.272 470.852 619.056 471.004C618.848 471.156 618.692 471.344 618.588 471.568V473.944C618.692 474.168 618.848 474.36 619.056 474.52C619.272 474.672 619.492 474.748 619.716 474.748ZM627.482 475.66H626.294V475.072C625.942 475.56 625.434 475.804 624.77 475.804C624.274 475.804 623.854 475.632 623.51 475.288C623.166 474.936 622.994 474.464 622.994 473.872C622.994 473.28 623.166 472.82 623.51 472.492C623.854 472.156 624.274 471.988 624.77 471.988C625.45 471.988 625.958 472.22 626.294 472.684V471.844C626.294 471.492 626.194 471.22 625.994 471.028C625.802 470.836 625.526 470.74 625.166 470.74C624.638 470.74 624.158 470.96 623.726 471.4L623.258 470.56C623.818 470 624.526 469.72 625.382 469.72C626.022 469.72 626.53 469.884 626.906 470.212C627.29 470.532 627.482 471.028 627.482 471.7V475.66ZM625.202 474.976C625.682 474.976 626.046 474.764 626.294 474.34V473.464C626.182 473.264 626.026 473.108 625.826 472.996C625.626 472.876 625.418 472.816 625.202 472.816C624.898 472.816 624.654 472.916 624.47 473.116C624.286 473.316 624.194 473.576 624.194 473.896C624.194 474.216 624.286 474.476 624.47 474.676C624.654 474.876 624.898 474.976 625.202 474.976ZM632.916 475.024C632.5 475.544 631.912 475.804 631.152 475.804C630.392 475.804 629.776 475.52 629.304 474.952C628.84 474.376 628.608 473.644 628.608 472.756C628.608 471.868 628.84 471.14 629.304 470.572C629.768 470.004 630.384 469.72 631.152 469.72C631.912 469.72 632.5 469.98 632.916 470.5L632.304 471.316C632.024 470.956 631.68 470.776 631.271 470.776C630.832 470.776 630.484 470.964 630.228 471.34C629.972 471.716 629.844 472.188 629.844 472.756C629.844 473.332 629.972 473.808 630.228 474.184C630.484 474.56 630.832 474.748 631.271 474.748C631.672 474.748 632.016 474.568 632.304 474.208L632.916 475.024ZM635.076 475.66H633.876V469.864H635.076V472.144H637.092V469.864H638.28V475.66H637.092V473.188H635.076V475.66ZM643.756 474.928C643.316 475.512 642.704 475.804 641.92 475.804C641.136 475.804 640.52 475.512 640.072 474.928C639.632 474.344 639.412 473.62 639.412 472.756C639.412 471.892 639.632 471.172 640.072 470.596C640.512 470.012 641.128 469.72 641.92 469.72C642.712 469.72 643.328 470.012 643.768 470.596C644.208 471.172 644.428 471.892 644.428 472.756C644.428 473.62 644.204 474.344 643.756 474.928ZM640.972 474.172C641.188 474.556 641.504 474.748 641.92 474.748C642.336 474.748 642.652 474.556 642.868 474.172C643.084 473.788 643.192 473.316 643.192 472.756C643.192 472.196 643.084 471.728 642.868 471.352C642.652 470.968 642.336 470.776 641.92 470.776C641.504 470.776 641.188 470.968 640.972 471.352C640.756 471.728 640.648 472.196 640.648 472.756C640.648 473.316 640.756 473.788 640.972 474.172ZM646.712 475.66H645.344L646.592 473.38C646.264 473.292 645.988 473.104 645.764 472.816C645.54 472.52 645.428 472.144 645.428 471.688C645.428 471.16 645.6 470.724 645.944 470.38C646.288 470.036 646.764 469.864 647.372 469.864H649.928V475.66H648.728V473.524H647.768L646.712 475.66ZM647.516 472.528H648.728V470.86H647.516C647.244 470.86 647.028 470.936 646.868 471.088C646.716 471.24 646.64 471.44 646.64 471.688C646.64 471.936 646.716 472.14 646.868 472.3C647.02 472.452 647.236 472.528 647.516 472.528ZM655.573 474.976C655.197 475.528 654.685 475.804 654.037 475.804C653.389 475.804 652.893 475.496 652.549 474.88V477.868H651.349V469.864H652.549V470.632C652.717 470.344 652.933 470.12 653.197 469.96C653.461 469.8 653.741 469.72 654.037 469.72C654.693 469.72 655.209 469.992 655.585 470.536C655.961 471.08 656.149 471.82 656.149 472.756C656.149 473.684 655.957 474.424 655.573 474.976ZM653.677 474.748C654.077 474.748 654.381 474.564 654.589 474.196C654.805 473.82 654.913 473.34 654.913 472.756C654.913 472.172 654.805 471.696 654.589 471.328C654.381 470.96 654.077 470.776 653.677 470.776C653.453 470.776 653.233 470.852 653.017 471.004C652.809 471.156 652.653 471.344 652.549 471.568V473.944C652.653 474.168 652.809 474.36 653.017 474.52C653.233 474.672 653.453 474.748 653.677 474.748ZM661.275 475.024C660.859 475.544 660.271 475.804 659.511 475.804C658.751 475.804 658.135 475.52 657.663 474.952C657.199 474.376 656.967 473.644 656.967 472.756C656.967 471.868 657.199 471.14 657.663 470.572C658.127 470.004 658.743 469.72 659.511 469.72C660.271 469.72 660.859 469.98 661.275 470.5L660.663 471.316C660.383 470.956 660.039 470.776 659.631 470.776C659.191 470.776 658.843 470.964 658.587 471.34C658.331 471.716 658.203 472.188 658.203 472.756C658.203 473.332 658.331 473.808 658.587 474.184C658.843 474.56 659.191 474.748 659.631 474.748C660.031 474.748 660.375 474.568 660.663 474.208L661.275 475.024ZM666.903 475.66H665.499L664.131 473.236L663.435 474.172V475.66H662.235V469.864H663.435V472.708L665.475 469.864H666.867L664.947 472.468L666.903 475.66Z" fill="#444444"/>
<circle cx="694.5" cy="492.66" r="4" fill="#444444"/>
<path d="M674.659 509.66H673.175V500.322H674.729V506.398L678.103 500.322H679.671V509.66H678.131V503.416L674.659 509.66ZM686.318 508.862C685.88 509.506 685.282 509.828 684.526 509.828C683.77 509.828 683.192 509.468 682.79 508.75V512.236H681.39V502.898H682.79V503.794C682.986 503.458 683.238 503.196 683.546 503.01C683.854 502.823 684.181 502.73 684.526 502.73C685.292 502.73 685.894 503.047 686.332 503.682C686.771 504.316 686.99 505.18 686.99 506.272C686.99 507.354 686.766 508.218 686.318 508.862ZM684.106 508.596C684.573 508.596 684.928 508.381 685.17 507.952C685.422 507.513 685.548 506.953 685.548 506.272C685.548 505.59 685.422 505.035 685.17 504.606C684.928 504.176 684.573 503.962 684.106 503.962C683.845 503.962 683.588 504.05 683.336 504.228C683.094 504.405 682.912 504.624 682.79 504.886V507.658C682.912 507.919 683.094 508.143 683.336 508.33C683.588 508.507 683.845 508.596 684.106 508.596ZM693.727 509.66H692.089L690.493 506.832L689.681 507.924V509.66H688.281V502.898H689.681V506.216L692.061 502.898H693.685L691.445 505.936L693.727 509.66ZM694.428 512.306L694.638 511.074C694.759 511.139 694.909 511.172 695.086 511.172C695.459 511.172 695.716 510.985 695.856 510.612L696.136 509.8L693.868 502.898H695.352L696.85 507.98L698.362 502.898H699.846L697.172 510.934C696.995 511.475 696.743 511.853 696.416 512.068C696.099 512.292 695.688 512.404 695.184 512.404C694.895 512.404 694.643 512.371 694.428 512.306ZM703.033 509.66H701.633V504.116H700.107V502.898H704.559V504.116H703.033V509.66ZM710.321 508.918C709.835 509.524 709.149 509.828 708.263 509.828C707.376 509.828 706.657 509.496 706.107 508.834C705.565 508.162 705.295 507.308 705.295 506.272C705.295 505.236 705.565 504.386 706.107 503.724C706.648 503.061 707.367 502.73 708.263 502.73C709.149 502.73 709.835 503.033 710.321 503.64L709.607 504.592C709.28 504.172 708.879 503.962 708.403 503.962C707.889 503.962 707.483 504.181 707.185 504.62C706.886 505.058 706.737 505.609 706.737 506.272C706.737 506.944 706.886 507.499 707.185 507.938C707.483 508.376 707.889 508.596 708.403 508.596C708.869 508.596 709.271 508.386 709.607 507.966L710.321 508.918ZM716.887 509.66H715.249L713.653 506.832L712.841 507.924V509.66H711.441V502.898H712.841V506.216L715.221 502.898H716.845L714.605 505.936L716.887 509.66Z" fill="#444444"/>
<path d="M569.301 452.66H567.761V444.68H565.619V443.322H571.443V444.68H569.301V452.66ZM576.228 451.806C575.715 452.487 575.001 452.828 574.086 452.828C573.171 452.828 572.453 452.487 571.93 451.806C571.417 451.124 571.16 450.28 571.16 449.272C571.16 448.264 571.417 447.424 571.93 446.752C572.443 446.07 573.162 445.73 574.086 445.73C575.01 445.73 575.729 446.07 576.242 446.752C576.755 447.424 577.012 448.264 577.012 449.272C577.012 450.28 576.751 451.124 576.228 451.806ZM572.98 450.924C573.232 451.372 573.601 451.596 574.086 451.596C574.571 451.596 574.94 451.372 575.192 450.924C575.444 450.476 575.57 449.925 575.57 449.272C575.57 448.618 575.444 448.072 575.192 447.634C574.94 447.186 574.571 446.962 574.086 446.962C573.601 446.962 573.232 447.186 572.98 447.634C572.728 448.072 572.602 448.618 572.602 449.272C572.602 449.925 572.728 450.476 572.98 450.924ZM584.982 452.66H583.61V448.25L581.944 452.66H581.384L579.732 448.25V452.66H578.332V445.898H580.124L581.664 449.972L583.204 445.898H584.982V452.66ZM591.321 451.918C590.835 452.524 590.149 452.828 589.263 452.828C588.376 452.828 587.657 452.496 587.107 451.834C586.565 451.162 586.295 450.308 586.295 449.272C586.295 448.236 586.565 447.386 587.107 446.724C587.648 446.061 588.367 445.73 589.263 445.73C590.149 445.73 590.835 446.033 591.321 446.64L590.607 447.592C590.28 447.172 589.879 446.962 589.403 446.962C588.889 446.962 588.483 447.181 588.185 447.62C587.886 448.058 587.737 448.609 587.737 449.272C587.737 449.944 587.886 450.499 588.185 450.938C588.483 451.376 588.889 451.596 589.403 451.596C589.869 451.596 590.271 451.386 590.607 450.966L591.321 451.918ZM597.887 452.66H596.249L594.653 449.832L593.841 450.924V452.66H592.441V445.898H593.841V449.216L596.221 445.898H597.845L595.605 448.936L597.887 452.66Z" fill="#444444"/>
<circle cx="581.5" cy="461.66" r="4" fill="#444444"/>
<circle cx="462.5" cy="477.66" r="4" fill="#444444"/>
<path d="M455.448 493.47C454.785 494.375 453.875 494.828 452.718 494.828C451.56 494.828 450.646 494.375 449.974 493.47C449.311 492.564 448.98 491.407 448.98 489.998C448.98 488.588 449.311 487.431 449.974 486.526C450.646 485.62 451.56 485.168 452.718 485.168C453.875 485.168 454.785 485.62 455.448 486.526C456.12 487.431 456.456 488.588 456.456 489.998C456.456 491.407 456.12 492.564 455.448 493.47ZM452.718 493.442C453.39 493.442 453.917 493.12 454.3 492.476C454.682 491.822 454.874 490.996 454.874 489.998C454.874 488.99 454.682 488.164 454.3 487.52C453.917 486.866 453.39 486.54 452.718 486.54C452.036 486.54 451.504 486.862 451.122 487.506C450.748 488.15 450.562 488.98 450.562 489.998C450.562 491.006 450.748 491.832 451.122 492.476C451.504 493.12 452.036 493.442 452.718 493.442ZM464.482 494.66H463.11V490.25L461.444 494.66H460.884L459.232 490.25V494.66H457.832V487.898H459.624L461.164 491.972L462.704 487.898H464.482V494.66ZM470.821 493.918C470.335 494.524 469.649 494.828 468.763 494.828C467.876 494.828 467.157 494.496 466.607 493.834C466.065 493.162 465.795 492.308 465.795 491.272C465.795 490.236 466.065 489.386 466.607 488.724C467.148 488.061 467.867 487.73 468.763 487.73C469.649 487.73 470.335 488.033 470.821 488.64L470.107 489.592C469.78 489.172 469.379 488.962 468.903 488.962C468.389 488.962 467.983 489.181 467.685 489.62C467.386 490.058 467.237 490.609 467.237 491.272C467.237 491.944 467.386 492.499 467.685 492.938C467.983 493.376 468.389 493.596 468.903 493.596C469.369 493.596 469.771 493.386 470.107 492.966L470.821 493.918ZM477.387 494.66H475.749L474.153 491.832L473.341 492.924V494.66H471.941V487.898H473.341V491.216L475.721 487.898H477.345L475.105 490.936L477.387 494.66Z" fill="#444444"/>
</svg>
