<svg width="1190" height="600" viewBox="0 0 1190 600" fill="none" xmlns="http://www.w3.org/2000/svg">
<circle cx="145.5" cy="227.823" r="4" fill="#444444"/>
<path d="M133.731 244.823H132.191V238.383L129.923 244.823H129.321L127.081 238.383V244.823H125.527V235.485H127.627L129.629 241.169L131.645 235.485H133.731V244.823ZM140.169 243.969C139.656 244.65 138.942 244.991 138.027 244.991C137.113 244.991 136.394 244.65 135.871 243.969C135.358 243.287 135.101 242.443 135.101 241.435C135.101 240.427 135.358 239.587 135.871 238.915C136.385 238.233 137.103 237.893 138.027 237.893C138.951 237.893 139.67 238.233 140.183 238.915C140.697 239.587 140.953 240.427 140.953 241.435C140.953 242.443 140.692 243.287 140.169 243.969ZM136.921 243.087C137.173 243.535 137.542 243.759 138.027 243.759C138.513 243.759 138.881 243.535 139.133 243.087C139.385 242.639 139.511 242.088 139.511 241.435C139.511 240.781 139.385 240.235 139.133 239.797C138.881 239.349 138.513 239.125 138.027 239.125C137.542 239.125 137.173 239.349 136.921 239.797C136.669 240.235 136.543 240.781 136.543 241.435C136.543 242.088 136.669 242.639 136.921 243.087ZM146.963 244.081C146.478 244.687 145.792 244.991 144.905 244.991C144.019 244.991 143.3 244.659 142.749 243.997C142.208 243.325 141.937 242.471 141.937 241.435C141.937 240.399 142.208 239.549 142.749 238.887C143.291 238.224 144.009 237.893 144.905 237.893C145.792 237.893 146.478 238.196 146.963 238.803L146.249 239.755C145.923 239.335 145.521 239.125 145.045 239.125C144.532 239.125 144.126 239.344 143.827 239.783C143.529 240.221 143.379 240.772 143.379 241.435C143.379 242.107 143.529 242.662 143.827 243.101C144.126 243.539 144.532 243.759 145.045 243.759C145.512 243.759 145.913 243.549 146.249 243.129L146.963 244.081ZM153.53 244.823H151.892L150.296 241.995L149.484 243.087V244.823H148.084V238.061H149.484V241.379L151.864 238.061H153.488L151.248 241.099L153.53 244.823ZM157.675 244.823H154.469V238.061H157.591C158.253 238.061 158.757 238.224 159.103 238.551C159.457 238.868 159.635 239.279 159.635 239.783C159.635 240.175 159.527 240.506 159.313 240.777C159.107 241.038 158.827 241.22 158.473 241.323C158.846 241.407 159.154 241.607 159.397 241.925C159.639 242.233 159.761 242.587 159.761 242.989C159.761 243.539 159.583 243.983 159.229 244.319C158.883 244.655 158.365 244.823 157.675 244.823ZM157.381 243.647C158.015 243.647 158.333 243.367 158.333 242.807C158.333 242.564 158.249 242.359 158.081 242.191C157.922 242.023 157.689 241.939 157.381 241.939H155.869V243.647H157.381ZM157.325 240.777C157.903 240.777 158.193 240.52 158.193 240.007C158.193 239.773 158.118 239.587 157.969 239.447C157.829 239.297 157.614 239.223 157.325 239.223H155.869V240.777H157.325ZM166.177 244.823H164.791V244.137C164.38 244.706 163.788 244.991 163.013 244.991C162.434 244.991 161.944 244.79 161.543 244.389C161.142 243.978 160.941 243.427 160.941 242.737C160.941 242.046 161.142 241.509 161.543 241.127C161.944 240.735 162.434 240.539 163.013 240.539C163.806 240.539 164.399 240.809 164.791 241.351V240.371C164.791 239.96 164.674 239.643 164.441 239.419C164.217 239.195 163.895 239.083 163.475 239.083C162.859 239.083 162.299 239.339 161.795 239.853L161.249 238.873C161.902 238.219 162.728 237.893 163.727 237.893C164.474 237.893 165.066 238.084 165.505 238.467C165.953 238.84 166.177 239.419 166.177 240.203V244.823ZM163.517 244.025C164.077 244.025 164.502 243.777 164.791 243.283V242.261C164.66 242.027 164.478 241.845 164.245 241.715C164.012 241.575 163.769 241.505 163.517 241.505C163.162 241.505 162.878 241.621 162.663 241.855C162.448 242.088 162.341 242.391 162.341 242.765C162.341 243.138 162.448 243.441 162.663 243.675C162.878 243.908 163.162 244.025 163.517 244.025Z" fill="#444444"/>
</svg>
