<svg width="1190" height="600" viewBox="0 0 1190 600" fill="none" xmlns="http://www.w3.org/2000/svg">
<circle cx="324.898" cy="332.099" r="4" fill="#444444"/>
<path d="M297.363 348.099H292.983V340.095H297.363V341.259H294.315V343.431H297.279V344.607H294.315V346.923H297.363V348.099ZM303.251 348.099H301.847L300.479 345.675L299.783 346.611V348.099H298.583V342.303H299.783V345.147L301.823 342.303H303.215L301.295 344.907L303.251 348.099ZM308.244 348.099H307.056V347.511C306.704 347.999 306.196 348.243 305.532 348.243C305.036 348.243 304.616 348.071 304.272 347.727C303.928 347.375 303.756 346.903 303.756 346.311C303.756 345.719 303.928 345.259 304.272 344.931C304.616 344.595 305.036 344.427 305.532 344.427C306.212 344.427 306.72 344.659 307.056 345.123V344.283C307.056 343.931 306.956 343.659 306.756 343.467C306.564 343.275 306.288 343.179 305.928 343.179C305.4 343.179 304.92 343.399 304.488 343.839L304.02 342.999C304.58 342.439 305.288 342.159 306.144 342.159C306.784 342.159 307.292 342.323 307.668 342.651C308.052 342.971 308.244 343.467 308.244 344.139V348.099ZM305.964 347.415C306.444 347.415 306.808 347.203 307.056 346.779V345.903C306.944 345.703 306.788 345.547 306.588 345.435C306.388 345.315 306.18 345.255 305.964 345.255C305.66 345.255 305.416 345.355 305.232 345.555C305.048 345.755 304.956 346.015 304.956 346.335C304.956 346.655 305.048 346.915 305.232 347.115C305.416 347.315 305.66 347.415 305.964 347.415ZM311.673 348.099H310.473V343.347H309.165V342.303H312.981V343.347H311.673V348.099ZM316.215 348.243C315.423 348.243 314.791 347.963 314.319 347.403C313.847 346.843 313.611 346.107 313.611 345.195C313.611 344.331 313.835 343.611 314.283 343.035C314.739 342.451 315.343 342.159 316.095 342.159C316.855 342.159 317.447 342.447 317.871 343.023C318.295 343.599 318.507 344.339 318.507 345.243V345.591H314.823C314.847 346.087 314.991 346.491 315.255 346.803C315.519 347.107 315.879 347.259 316.335 347.259C316.855 347.259 317.291 347.051 317.643 346.635L318.219 347.355C317.699 347.947 317.031 348.243 316.215 348.243ZM317.343 344.739C317.335 344.315 317.227 343.943 317.019 343.623C316.819 343.295 316.507 343.131 316.083 343.131C315.675 343.131 315.367 343.295 315.159 343.623C314.951 343.951 314.835 344.323 314.811 344.739H317.343ZM323.807 347.415C323.431 347.967 322.919 348.243 322.271 348.243C321.623 348.243 321.127 347.935 320.783 347.319V350.307H319.583V342.303H320.783V343.071C320.951 342.783 321.167 342.559 321.431 342.399C321.695 342.239 321.975 342.159 322.271 342.159C322.927 342.159 323.443 342.431 323.819 342.975C324.195 343.519 324.383 344.259 324.383 345.195C324.383 346.123 324.191 346.863 323.807 347.415ZM321.911 347.187C322.311 347.187 322.615 347.003 322.823 346.635C323.039 346.259 323.147 345.779 323.147 345.195C323.147 344.611 323.039 344.135 322.823 343.767C322.615 343.399 322.311 343.215 321.911 343.215C321.687 343.215 321.467 343.291 321.251 343.443C321.043 343.595 320.887 343.783 320.783 344.007V346.383C320.887 346.607 321.043 346.799 321.251 346.959C321.467 347.111 321.687 347.187 321.911 347.187ZM326.653 348.099H325.489V342.303H326.689V345.939L328.669 342.303H329.893V348.099H328.705V344.343L326.653 348.099ZM332.513 348.099H331.313V342.303H332.513V344.583H334.529V342.303H335.717V348.099H334.529V345.627H332.513V348.099ZM339.346 347.187C339.762 347.187 340.078 346.995 340.294 346.611C340.51 346.219 340.618 345.739 340.618 345.171C340.618 344.627 340.51 344.167 340.294 343.791C340.078 343.407 339.762 343.215 339.346 343.215C338.938 343.215 338.626 343.407 338.41 343.791C338.194 344.167 338.086 344.627 338.086 345.171C338.086 345.739 338.194 346.219 338.41 346.611C338.626 346.995 338.938 347.187 339.346 347.187ZM339.346 348.243C338.546 348.243 337.93 347.939 337.498 347.331C337.066 346.715 336.85 345.915 336.85 344.931C336.85 343.451 337.03 342.407 337.39 341.799C337.758 341.191 338.414 340.807 339.358 340.647C339.782 340.575 340.074 340.499 340.234 340.419C340.402 340.339 340.486 340.231 340.486 340.095H341.674C341.674 340.359 341.61 340.591 341.482 340.791C341.354 340.983 341.174 341.135 340.942 341.247C340.718 341.359 340.51 341.443 340.318 341.499C340.126 341.555 339.906 341.603 339.658 341.643C338.554 341.819 337.954 342.295 337.858 343.071C338.026 342.791 338.258 342.571 338.554 342.411C338.85 342.243 339.182 342.159 339.55 342.159C340.262 342.159 340.822 342.451 341.23 343.035C341.646 343.619 341.854 344.335 341.854 345.183C341.854 346.039 341.634 346.763 341.194 347.355C340.754 347.947 340.138 348.243 339.346 348.243ZM342.817 350.367L342.997 349.311C343.101 349.367 343.229 349.395 343.381 349.395C343.701 349.395 343.921 349.235 344.041 348.915L344.281 348.219L342.337 342.303H343.609L344.893 346.659L346.189 342.303H347.461L345.169 349.191C345.017 349.655 344.801 349.979 344.521 350.163C344.249 350.355 343.897 350.451 343.465 350.451C343.217 350.451 343.001 350.423 342.817 350.367ZM352.401 347.415C352.025 347.967 351.513 348.243 350.865 348.243C350.217 348.243 349.721 347.935 349.377 347.319V350.307H348.177V342.303H349.377V343.071C349.545 342.783 349.761 342.559 350.025 342.399C350.289 342.239 350.569 342.159 350.865 342.159C351.521 342.159 352.037 342.431 352.413 342.975C352.789 343.519 352.977 344.259 352.977 345.195C352.977 346.123 352.785 346.863 352.401 347.415ZM350.505 347.187C350.905 347.187 351.209 347.003 351.417 346.635C351.633 346.259 351.741 345.779 351.741 345.195C351.741 344.611 351.633 344.135 351.417 343.767C351.209 343.399 350.905 343.215 350.505 343.215C350.281 343.215 350.061 343.291 349.845 343.443C349.637 343.595 349.481 343.783 349.377 344.007V346.383C349.481 346.607 349.637 346.799 349.845 346.959C350.061 347.111 350.281 347.187 350.505 347.187ZM357.683 342.303V343.347H355.283V348.099H354.083V342.303H357.683Z" fill="#444444"/>
<circle cx="383.5" cy="303.099" r="4" fill="#444444"/>
<path d="M372.875 320.099H371.321V312.119H367.905V320.099H366.351V310.761H372.875V320.099ZM377.282 320.267C376.358 320.267 375.621 319.94 375.07 319.287C374.519 318.634 374.244 317.775 374.244 316.711C374.244 315.703 374.505 314.863 375.028 314.191C375.56 313.51 376.265 313.169 377.142 313.169C378.029 313.169 378.719 313.505 379.214 314.177C379.709 314.849 379.956 315.712 379.956 316.767V317.173H375.658C375.686 317.752 375.854 318.223 376.162 318.587C376.47 318.942 376.89 319.119 377.422 319.119C378.029 319.119 378.537 318.876 378.948 318.391L379.62 319.231C379.013 319.922 378.234 320.267 377.282 320.267ZM378.598 316.179C378.589 315.684 378.463 315.25 378.22 314.877C377.987 314.494 377.623 314.303 377.128 314.303C376.652 314.303 376.293 314.494 376.05 314.877C375.807 315.26 375.672 315.694 375.644 316.179H378.598ZM386.139 319.301C385.7 319.945 385.103 320.267 384.347 320.267C383.591 320.267 383.012 319.908 382.611 319.189V322.675H381.211V313.337H382.611V314.233C382.807 313.897 383.059 313.636 383.367 313.449C383.675 313.262 384.001 313.169 384.347 313.169C385.112 313.169 385.714 313.486 386.153 314.121C386.591 314.756 386.811 315.619 386.811 316.711C386.811 317.794 386.587 318.657 386.139 319.301ZM383.927 319.035C384.393 319.035 384.748 318.82 384.991 318.391C385.243 317.952 385.369 317.392 385.369 316.711C385.369 316.03 385.243 315.474 384.991 315.045C384.748 314.616 384.393 314.401 383.927 314.401C383.665 314.401 383.409 314.49 383.157 314.667C382.914 314.844 382.732 315.064 382.611 315.325V318.097C382.732 318.358 382.914 318.582 383.157 318.769C383.409 318.946 383.665 319.035 383.927 319.035ZM394.751 320.099H393.379V315.689L391.713 320.099H391.153L389.501 315.689V320.099H388.101V313.337H389.893L391.433 317.411L392.973 313.337H394.751V320.099ZM396.4 313.337H397.8V315.815H399.298C400.036 315.815 400.596 316.02 400.978 316.431C401.37 316.842 401.566 317.355 401.566 317.971C401.566 318.578 401.366 319.086 400.964 319.497C400.572 319.898 400.017 320.099 399.298 320.099H396.4V313.337ZM399.13 316.991H397.8V318.923H399.13C399.448 318.923 399.695 318.834 399.872 318.657C400.05 318.48 400.138 318.246 400.138 317.957C400.138 317.677 400.05 317.448 399.872 317.271C399.695 317.084 399.448 316.991 399.13 316.991Z" fill="#444444"/>
<circle cx="437" cy="315.099" r="4" fill="#444444"/>
<path d="M425.255 331.243C424.263 331.243 423.471 330.859 422.879 330.091C422.287 329.315 421.991 328.319 421.991 327.103C421.991 325.879 422.287 324.883 422.879 324.115C423.471 323.347 424.263 322.963 425.255 322.963C426.383 322.963 427.227 323.551 427.787 324.727L426.683 325.219C426.371 324.499 425.895 324.139 425.255 324.139C424.679 324.139 424.215 324.415 423.863 324.967C423.519 325.519 423.347 326.231 423.347 327.103C423.347 327.967 423.519 328.675 423.863 329.227C424.215 329.779 424.679 330.055 425.255 330.055C425.591 330.055 425.879 329.947 426.119 329.731C426.367 329.515 426.559 329.231 426.695 328.879L427.799 329.371C427.255 330.619 426.407 331.243 425.255 331.243ZM428.52 333.367L428.7 332.311C428.804 332.367 428.932 332.395 429.084 332.395C429.404 332.395 429.624 332.235 429.744 331.915L429.984 331.219L428.04 325.303H429.312L430.596 329.659L431.892 325.303H433.164L430.872 332.191C430.72 332.655 430.504 332.979 430.224 333.163C429.952 333.355 429.6 333.451 429.168 333.451C428.92 333.451 428.704 333.423 428.52 333.367ZM438.104 330.415C437.728 330.967 437.216 331.243 436.568 331.243C435.92 331.243 435.424 330.935 435.08 330.319V333.307H433.88V325.303H435.08V326.071C435.248 325.783 435.464 325.559 435.728 325.399C435.992 325.239 436.272 325.159 436.568 325.159C437.224 325.159 437.74 325.431 438.116 325.975C438.492 326.519 438.68 327.259 438.68 328.195C438.68 329.123 438.488 329.863 438.104 330.415ZM436.208 330.187C436.608 330.187 436.912 330.003 437.12 329.635C437.336 329.259 437.444 328.779 437.444 328.195C437.444 327.611 437.336 327.135 437.12 326.767C436.912 326.399 436.608 326.215 436.208 326.215C435.984 326.215 435.764 326.291 435.548 326.443C435.34 326.595 435.184 326.783 435.08 327.007V329.383C435.184 329.607 435.34 329.799 435.548 329.959C435.764 330.111 435.984 330.187 436.208 330.187ZM443.386 325.303V326.347H440.986V331.099H439.786V325.303H443.386ZM444.106 333.367L444.286 332.311C444.39 332.367 444.518 332.395 444.67 332.395C444.99 332.395 445.21 332.235 445.33 331.915L445.57 331.219L443.626 325.303H444.898L446.182 329.659L447.478 325.303H448.75L446.458 332.191C446.306 332.655 446.09 332.979 445.81 333.163C445.538 333.355 445.186 333.451 444.754 333.451C444.506 333.451 444.29 333.423 444.106 333.367ZM451.482 331.099H450.282V326.347H448.974V325.303H452.79V326.347H451.482V331.099Z" fill="#444444"/>
<circle cx="415.5" cy="366.496" r="4" fill="#444444"/>
<path d="M398 383.496H396.46V375.516H394.318V374.158H400.142V375.516H398V383.496ZM405.927 383.664C405.096 383.664 404.424 383.38 403.911 382.81C403.398 382.232 403.099 381.499 403.015 380.612H401.937V383.496H400.537V376.734H401.937V379.394H403.043C403.164 378.564 403.472 377.887 403.967 377.364C404.471 376.832 405.124 376.566 405.927 376.566C406.851 376.566 407.57 376.907 408.083 377.588C408.596 378.26 408.853 379.1 408.853 380.108C408.853 381.116 408.596 381.961 408.083 382.642C407.57 383.324 406.851 383.664 405.927 383.664ZM404.821 381.774C405.073 382.213 405.442 382.432 405.927 382.432C406.412 382.432 406.781 382.213 407.033 381.774C407.285 381.326 407.411 380.771 407.411 380.108C407.411 379.446 407.285 378.895 407.033 378.456C406.781 378.018 406.412 377.798 405.927 377.798C405.442 377.798 405.073 378.018 404.821 378.456C404.578 378.895 404.457 379.446 404.457 380.108C404.457 380.771 404.578 381.326 404.821 381.774ZM416.826 383.496H415.454V379.086L413.788 383.496H413.228L411.576 379.086V383.496H410.176V376.734H411.968L413.508 380.808L415.048 376.734H416.826V383.496ZM421.176 383.664C420.252 383.664 419.515 383.338 418.964 382.684C418.414 382.031 418.138 381.172 418.138 380.108C418.138 379.1 418.4 378.26 418.922 377.588C419.454 376.907 420.159 376.566 421.036 376.566C421.923 376.566 422.614 376.902 423.108 377.574C423.603 378.246 423.85 379.11 423.85 380.164V380.57H419.552C419.58 381.149 419.748 381.62 420.056 381.984C420.364 382.339 420.784 382.516 421.316 382.516C421.923 382.516 422.432 382.274 422.842 381.788L423.514 382.628C422.908 383.319 422.128 383.664 421.176 383.664ZM422.492 379.576C422.483 379.082 422.357 378.648 422.114 378.274C421.881 377.892 421.517 377.7 421.022 377.7C420.546 377.7 420.187 377.892 419.944 378.274C419.702 378.657 419.566 379.091 419.538 379.576H422.492ZM426.505 383.496H425.105V376.734H426.505V379.394H428.857V376.734H430.243V383.496H428.857V380.612H426.505V383.496ZM431.9 376.734H433.3V379.212H434.798C435.536 379.212 436.096 379.418 436.478 379.828C436.87 380.239 437.066 380.752 437.066 381.368C437.066 381.975 436.866 382.484 436.464 382.894C436.072 383.296 435.517 383.496 434.798 383.496H431.9V376.734ZM434.63 380.388H433.3V382.32H434.63C434.948 382.32 435.195 382.232 435.372 382.054C435.55 381.877 435.638 381.644 435.638 381.354C435.638 381.074 435.55 380.846 435.372 380.668C435.195 380.482 434.948 380.388 434.63 380.388Z" fill="#444444"/>
<circle cx="330.398" cy="293.099" r="4" fill="#444444"/>
<path d="M314.493 309.099H313.221V301.095H314.553V306.303L317.445 301.095H318.789V309.099H317.469V303.747L314.493 309.099ZM321.055 309.099H319.651L321.607 305.907L319.687 303.303H321.079L322.675 305.535V303.303H323.875V305.535L325.471 303.303H326.863L324.943 305.907L326.899 309.099H325.495L324.127 306.675L323.875 307.011V309.099H322.675V307.011L322.423 306.675L321.055 309.099ZM329.938 309.243C329.146 309.243 328.514 308.963 328.042 308.403C327.57 307.843 327.334 307.107 327.334 306.195C327.334 305.331 327.558 304.611 328.006 304.035C328.462 303.451 329.066 303.159 329.818 303.159C330.578 303.159 331.17 303.447 331.594 304.023C332.018 304.599 332.23 305.339 332.23 306.243V306.591H328.546C328.57 307.087 328.714 307.491 328.978 307.803C329.242 308.107 329.602 308.259 330.058 308.259C330.578 308.259 331.014 308.051 331.366 307.635L331.942 308.355C331.422 308.947 330.754 309.243 329.938 309.243ZM331.066 305.739C331.058 305.315 330.95 304.943 330.742 304.623C330.542 304.295 330.23 304.131 329.806 304.131C329.398 304.131 329.09 304.295 328.882 304.623C328.674 304.951 328.558 305.323 328.534 305.739H331.066ZM336.054 309.099H333.306V303.303H335.982C336.55 303.303 336.982 303.443 337.278 303.723C337.582 303.995 337.734 304.347 337.734 304.779C337.734 305.115 337.642 305.399 337.458 305.631C337.282 305.855 337.042 306.011 336.738 306.099C337.058 306.171 337.322 306.343 337.53 306.615C337.738 306.879 337.842 307.183 337.842 307.527C337.842 307.999 337.69 308.379 337.386 308.667C337.09 308.955 336.646 309.099 336.054 309.099ZM335.802 308.091C336.346 308.091 336.618 307.851 336.618 307.371C336.618 307.163 336.546 306.987 336.402 306.843C336.266 306.699 336.066 306.627 335.802 306.627H334.506V308.091H335.802ZM335.754 305.631C336.25 305.631 336.498 305.411 336.498 304.971C336.498 304.771 336.434 304.611 336.306 304.491C336.186 304.363 336.002 304.299 335.754 304.299H334.506V305.631H335.754ZM343.173 308.463C342.757 308.983 342.169 309.243 341.409 309.243C340.649 309.243 340.033 308.959 339.561 308.391C339.097 307.815 338.865 307.083 338.865 306.195C338.865 305.307 339.097 304.579 339.561 304.011C340.025 303.443 340.641 303.159 341.409 303.159C342.169 303.159 342.757 303.419 343.173 303.939L342.561 304.755C342.281 304.395 341.937 304.215 341.529 304.215C341.089 304.215 340.741 304.403 340.485 304.779C340.229 305.155 340.101 305.627 340.101 306.195C340.101 306.771 340.229 307.247 340.485 307.623C340.741 307.999 341.089 308.187 341.529 308.187C341.929 308.187 342.273 308.007 342.561 307.647L343.173 308.463ZM348.802 309.099H347.398L346.03 306.675L345.334 307.611V309.099H344.134V303.303H345.334V306.147L347.374 303.303H348.766L346.846 305.907L348.802 309.099Z" fill="#444444"/>
<circle cx="322.5" cy="366.496" r="4" fill="#444444"/>
<path d="M294.824 374.158V376.832C294.824 378.008 295.342 378.596 296.378 378.596C296.9 378.596 297.348 378.526 297.722 378.386V374.158H299.276V383.496H297.722V379.758C297.18 379.898 296.667 379.968 296.182 379.968C295.22 379.968 294.492 379.684 293.998 379.114C293.512 378.536 293.27 377.775 293.27 376.832V374.158H294.824ZM303.7 383.664C302.776 383.664 302.039 383.338 301.488 382.684C300.937 382.031 300.662 381.172 300.662 380.108C300.662 379.1 300.923 378.26 301.446 377.588C301.978 376.907 302.683 376.566 303.56 376.566C304.447 376.566 305.137 376.902 305.632 377.574C306.127 378.246 306.374 379.11 306.374 380.164V380.57H302.076C302.104 381.149 302.272 381.62 302.58 381.984C302.888 382.339 303.308 382.516 303.84 382.516C304.447 382.516 304.955 382.274 305.366 381.788L306.038 382.628C305.431 383.319 304.652 383.664 303.7 383.664ZM305.016 379.576C305.007 379.082 304.881 378.648 304.638 378.274C304.405 377.892 304.041 377.7 303.546 377.7C303.07 377.7 302.711 377.892 302.468 378.274C302.225 378.657 302.09 379.091 302.062 379.576H305.016ZM307.055 383.664V382.474C307.344 382.474 307.568 382.32 307.727 382.012C307.895 381.704 308.016 381.126 308.091 380.276L308.399 376.734H312.767V383.496H311.381V377.952H309.673L309.491 380.388C309.397 381.583 309.15 382.428 308.749 382.922C308.347 383.417 307.783 383.664 307.055 383.664ZM315.768 383.496H314.172L315.628 380.836C315.245 380.734 314.923 380.514 314.662 380.178C314.4 379.833 314.27 379.394 314.27 378.862C314.27 378.246 314.47 377.738 314.872 377.336C315.273 376.935 315.828 376.734 316.538 376.734H319.52V383.496H318.12V381.004H317L315.768 383.496ZM316.706 379.842H318.12V377.896H316.706C316.388 377.896 316.136 377.985 315.95 378.162C315.772 378.34 315.684 378.573 315.684 378.862C315.684 379.152 315.772 379.39 315.95 379.576C316.127 379.754 316.379 379.842 316.706 379.842ZM323.754 382.432C324.239 382.432 324.608 382.208 324.86 381.76C325.112 381.303 325.238 380.743 325.238 380.08C325.238 379.446 325.112 378.909 324.86 378.47C324.608 378.022 324.239 377.798 323.754 377.798C323.278 377.798 322.914 378.022 322.662 378.47C322.41 378.909 322.284 379.446 322.284 380.08C322.284 380.743 322.41 381.303 322.662 381.76C322.914 382.208 323.278 382.432 323.754 382.432ZM323.754 383.664C322.82 383.664 322.102 383.31 321.598 382.6C321.094 381.882 320.842 380.948 320.842 379.8C320.842 378.074 321.052 376.856 321.472 376.146C321.901 375.437 322.666 374.989 323.768 374.802C324.262 374.718 324.603 374.63 324.79 374.536C324.986 374.443 325.084 374.317 325.084 374.158H326.47C326.47 374.466 326.395 374.737 326.246 374.97C326.096 375.194 325.886 375.372 325.616 375.502C325.354 375.633 325.112 375.731 324.888 375.796C324.664 375.862 324.407 375.918 324.118 375.964C322.83 376.17 322.13 376.725 322.018 377.63C322.214 377.304 322.484 377.047 322.83 376.86C323.175 376.664 323.562 376.566 323.992 376.566C324.822 376.566 325.476 376.907 325.952 377.588C326.437 378.27 326.68 379.105 326.68 380.094C326.68 381.093 326.423 381.938 325.91 382.628C325.396 383.319 324.678 383.664 323.754 383.664ZM329.399 383.496H328.041V376.734H329.441V380.976L331.751 376.734H333.179V383.496H331.793V379.114L329.399 383.496ZM336.236 383.496H334.836V376.734H336.236V379.394H338.588V376.734H339.974V383.496H338.588V380.612H336.236V383.496ZM346.321 382.754C345.835 383.361 345.149 383.664 344.263 383.664C343.376 383.664 342.657 383.333 342.107 382.67C341.565 381.998 341.295 381.144 341.295 380.108C341.295 379.072 341.565 378.223 342.107 377.56C342.648 376.898 343.367 376.566 344.263 376.566C345.149 376.566 345.835 376.87 346.321 377.476L345.607 378.428C345.28 378.008 344.879 377.798 344.403 377.798C343.889 377.798 343.483 378.018 343.185 378.456C342.886 378.895 342.737 379.446 342.737 380.108C342.737 380.78 342.886 381.336 343.185 381.774C343.483 382.213 343.889 382.432 344.403 382.432C344.869 382.432 345.271 382.222 345.607 381.802L346.321 382.754ZM352.887 383.496H351.249L349.653 380.668L348.841 381.76V383.496H347.441V376.734H348.841V380.052L351.221 376.734H352.845L350.605 379.772L352.887 383.496Z" fill="#444444"/>
</svg>
