<svg width="1190" height="600" viewBox="0 0 1190 600" fill="none" xmlns="http://www.w3.org/2000/svg">
<circle cx="153.5" cy="134.599" r="4" fill="#444444"/>
<path d="M104.945 155.791C103.622 155.791 102.566 155.279 101.777 154.255C100.987 153.221 100.593 151.893 100.593 150.271C100.593 148.639 100.987 147.311 101.777 146.287C102.566 145.263 103.622 144.751 104.945 144.751C106.449 144.751 107.574 145.535 108.321 147.103L106.849 147.759C106.433 146.799 105.798 146.319 104.945 146.319C104.177 146.319 103.558 146.687 103.089 147.423C102.63 148.159 102.401 149.109 102.401 150.271C102.401 151.423 102.63 152.367 103.089 153.103C103.558 153.839 104.177 154.207 104.945 154.207C105.393 154.207 105.777 154.063 106.097 153.775C106.427 153.487 106.683 153.109 106.865 152.639L108.337 153.295C107.611 154.959 106.481 155.791 104.945 155.791ZM115.247 155.599H113.663V154.815C113.193 155.466 112.516 155.791 111.631 155.791C110.969 155.791 110.409 155.562 109.951 155.103C109.492 154.634 109.263 154.005 109.263 153.215C109.263 152.426 109.492 151.813 109.951 151.375C110.409 150.927 110.969 150.703 111.631 150.703C112.537 150.703 113.215 151.013 113.663 151.631V150.511C113.663 150.042 113.529 149.679 113.263 149.423C113.007 149.167 112.639 149.039 112.159 149.039C111.455 149.039 110.815 149.333 110.239 149.919L109.615 148.799C110.361 148.053 111.305 147.679 112.447 147.679C113.3 147.679 113.977 147.898 114.479 148.335C114.991 148.762 115.247 149.423 115.247 150.319V155.599ZM112.207 154.687C112.847 154.687 113.332 154.405 113.663 153.839V152.671C113.513 152.405 113.305 152.197 113.039 152.047C112.772 151.887 112.495 151.807 112.207 151.807C111.801 151.807 111.476 151.941 111.231 152.207C110.985 152.474 110.863 152.821 110.863 153.247C110.863 153.674 110.985 154.021 111.231 154.287C111.476 154.554 111.801 154.687 112.207 154.687ZM118.732 155.599H117.132V147.871H118.732V150.911H121.42V147.871H123.004V155.599H121.42V152.303H118.732V155.599ZM131.121 155.599H129.249L127.425 152.367L126.497 153.615V155.599H124.897V147.871H126.497V151.663L129.217 147.871H131.073L128.513 151.343L131.121 155.599ZM134.882 155.599H133.282V149.263H131.538V147.871H136.626V149.263H134.882V155.599ZM140.73 152.415H137.386V151.039H140.73V152.415ZM149.683 155.599H147.907V146.479H144.003V155.599H142.227V144.927H149.683V155.599ZM154.72 155.791C153.664 155.791 152.821 155.418 152.192 154.671C151.562 153.925 151.248 152.943 151.248 151.727C151.248 150.575 151.546 149.615 152.144 148.847C152.752 148.069 153.557 147.679 154.56 147.679C155.573 147.679 156.362 148.063 156.928 148.831C157.493 149.599 157.776 150.586 157.776 151.791V152.255H152.864C152.896 152.917 153.088 153.455 153.44 153.871C153.792 154.277 154.272 154.479 154.88 154.479C155.573 154.479 156.154 154.202 156.624 153.647L157.392 154.607C156.698 155.397 155.808 155.791 154.72 155.791ZM156.224 151.119C156.213 150.554 156.069 150.058 155.792 149.631C155.525 149.194 155.109 148.975 154.544 148.975C154 148.975 153.589 149.194 153.312 149.631C153.034 150.069 152.88 150.565 152.848 151.119H156.224ZM161.898 155.599H160.298V149.263H158.554V147.871H163.642V149.263H161.898V155.599ZM167.954 155.791C166.898 155.791 166.055 155.418 165.426 154.671C164.797 153.925 164.482 152.943 164.482 151.727C164.482 150.575 164.781 149.615 165.378 148.847C165.986 148.069 166.791 147.679 167.794 147.679C168.807 147.679 169.597 148.063 170.162 148.831C170.727 149.599 171.01 150.586 171.01 151.791V152.255H166.098C166.13 152.917 166.322 153.455 166.674 153.871C167.026 154.277 167.506 154.479 168.114 154.479C168.807 154.479 169.389 154.202 169.858 153.647L170.626 154.607C169.933 155.397 169.042 155.791 167.954 155.791ZM169.458 151.119C169.447 150.554 169.303 150.058 169.026 149.631C168.759 149.194 168.343 148.975 167.778 148.975C167.234 148.975 166.823 149.194 166.546 149.631C166.269 150.069 166.114 150.565 166.082 151.119H169.458ZM178.076 154.687C177.575 155.423 176.892 155.791 176.028 155.791C175.164 155.791 174.503 155.381 174.044 154.559V158.543H172.444V147.871H174.044V148.895C174.268 148.511 174.556 148.213 174.908 147.999C175.26 147.786 175.633 147.679 176.028 147.679C176.903 147.679 177.591 148.042 178.092 148.767C178.593 149.493 178.844 150.479 178.844 151.727C178.844 152.965 178.588 153.951 178.076 154.687ZM175.548 154.383C176.081 154.383 176.487 154.138 176.764 153.647C177.052 153.146 177.196 152.506 177.196 151.727C177.196 150.949 177.052 150.314 176.764 149.823C176.487 149.333 176.081 149.087 175.548 149.087C175.249 149.087 174.956 149.189 174.668 149.391C174.391 149.594 174.183 149.845 174.044 150.143V153.311C174.183 153.61 174.391 153.866 174.668 154.079C174.956 154.282 175.249 154.383 175.548 154.383ZM183.263 154.383C183.818 154.383 184.239 154.127 184.527 153.615C184.815 153.093 184.959 152.453 184.959 151.695C184.959 150.97 184.815 150.357 184.527 149.855C184.239 149.343 183.818 149.087 183.263 149.087C182.719 149.087 182.303 149.343 182.015 149.855C181.727 150.357 181.583 150.97 181.583 151.695C181.583 152.453 181.727 153.093 182.015 153.615C182.303 154.127 182.719 154.383 183.263 154.383ZM183.263 155.791C182.196 155.791 181.375 155.386 180.799 154.575C180.223 153.754 179.935 152.687 179.935 151.375C179.935 149.402 180.175 148.01 180.655 147.199C181.146 146.389 182.02 145.877 183.279 145.663C183.844 145.567 184.234 145.466 184.447 145.359C184.671 145.253 184.783 145.109 184.783 144.927H186.367C186.367 145.279 186.282 145.589 186.111 145.855C185.94 146.111 185.7 146.314 185.391 146.463C185.092 146.613 184.815 146.725 184.559 146.799C184.303 146.874 184.01 146.938 183.679 146.991C182.207 147.226 181.407 147.861 181.279 148.895C181.503 148.522 181.812 148.229 182.207 148.015C182.602 147.791 183.044 147.679 183.535 147.679C184.484 147.679 185.231 148.069 185.775 148.847C186.33 149.626 186.607 150.581 186.607 151.711C186.607 152.853 186.314 153.818 185.727 154.607C185.14 155.397 184.319 155.791 183.263 155.791ZM187.891 158.623L188.131 157.215C188.269 157.29 188.44 157.327 188.643 157.327C189.069 157.327 189.363 157.114 189.523 156.687L189.843 155.759L187.251 147.871H188.947L190.659 153.679L192.387 147.871H194.083L191.027 157.055C190.824 157.674 190.536 158.106 190.163 158.351C189.8 158.607 189.331 158.735 188.755 158.735C188.424 158.735 188.136 158.698 187.891 158.623ZM200.67 154.687C200.168 155.423 199.486 155.791 198.622 155.791C197.758 155.791 197.096 155.381 196.638 154.559V158.543H195.038V147.871H196.638V148.895C196.862 148.511 197.15 148.213 197.502 147.999C197.854 147.786 198.227 147.679 198.622 147.679C199.496 147.679 200.184 148.042 200.686 148.767C201.187 149.493 201.438 150.479 201.438 151.727C201.438 152.965 201.182 153.951 200.67 154.687ZM198.142 154.383C198.675 154.383 199.08 154.138 199.358 153.647C199.646 153.146 199.79 152.506 199.79 151.727C199.79 150.949 199.646 150.314 199.358 149.823C199.08 149.333 198.675 149.087 198.142 149.087C197.843 149.087 197.55 149.189 197.262 149.391C196.984 149.594 196.776 149.845 196.638 150.143V153.311C196.776 153.61 196.984 153.866 197.262 154.079C197.55 154.282 197.843 154.383 198.142 154.383ZM207.713 147.871V149.263H204.513V155.599H202.913V147.871H207.713Z" fill="#444444"/>
<circle cx="42.5" cy="127.496" r="4" fill="#444444"/>
<path d="M17.336 145.496H15.764L13.7 142.196L13.1 143.108V145.496H11.768V137.492H13.1V141.344L15.584 137.492H17.144L14.528 141.272L17.336 145.496ZM22.2241 145.496H21.0361V144.908C20.6841 145.396 20.1761 145.64 19.5121 145.64C19.0161 145.64 18.5961 145.468 18.2521 145.124C17.9081 144.772 17.7361 144.3 17.7361 143.708C17.7361 143.116 17.9081 142.656 18.2521 142.328C18.5961 141.992 19.0161 141.824 19.5121 141.824C20.1921 141.824 20.7001 142.056 21.0361 142.52V141.68C21.0361 141.328 20.9361 141.056 20.7361 140.864C20.5441 140.672 20.2681 140.576 19.9081 140.576C19.3801 140.576 18.9001 140.796 18.4681 141.236L18.0001 140.396C18.5601 139.836 19.2681 139.556 20.1241 139.556C20.7641 139.556 21.2721 139.72 21.6481 140.048C22.0321 140.368 22.2241 140.864 22.2241 141.536V145.496ZM19.9441 144.812C20.4241 144.812 20.7881 144.6 21.0361 144.176V143.3C20.9241 143.1 20.7681 142.944 20.5681 142.832C20.3681 142.712 20.1601 142.652 19.9441 142.652C19.6401 142.652 19.3961 142.752 19.2121 142.952C19.0281 143.152 18.9361 143.412 18.9361 143.732C18.9361 144.052 19.0281 144.312 19.2121 144.512C19.3961 144.712 19.6401 144.812 19.9441 144.812ZM23.1457 145.64V144.62C23.3937 144.62 23.5857 144.488 23.7217 144.224C23.8657 143.96 23.9697 143.464 24.0337 142.736L24.2977 139.7H28.0417V145.496H26.8537V140.744H25.3897L25.2337 142.832C25.1537 143.856 24.9417 144.58 24.5977 145.004C24.2537 145.428 23.7697 145.64 23.1457 145.64ZM30.6259 145.496H29.4619V139.7H30.6619V143.336L32.6419 139.7H33.8659V145.496H32.6779V141.74L30.6259 145.496ZM36.4861 145.496H35.2861V139.7H36.4861V141.98H38.5021V139.7H39.6901V145.496H38.5021V143.024H36.4861V145.496ZM42.2743 145.496H41.1103V139.7H42.3103V143.336L44.2903 139.7H45.5143V145.496H44.3263V141.74L42.2743 145.496ZM48.1346 145.496H46.9346V139.7H48.1346V141.98H50.1506V139.7H51.3386V145.496H50.1506V143.024H48.1346V145.496ZM56.3588 139.7V140.744H53.9588V145.496H52.7588V139.7H56.3588ZM61.5062 144.812C61.1302 145.364 60.6182 145.64 59.9702 145.64C59.3222 145.64 58.8262 145.332 58.4822 144.716V147.704H57.2822V139.7H58.4822V140.468C58.6502 140.18 58.8662 139.956 59.1302 139.796C59.3942 139.636 59.6742 139.556 59.9702 139.556C60.6262 139.556 61.1422 139.828 61.5182 140.372C61.8942 140.916 62.0822 141.656 62.0822 142.592C62.0822 143.52 61.8902 144.26 61.5062 144.812ZM59.6102 144.584C60.0102 144.584 60.3142 144.4 60.5222 144.032C60.7382 143.656 60.8462 143.176 60.8462 142.592C60.8462 142.008 60.7382 141.532 60.5222 141.164C60.3142 140.796 60.0102 140.612 59.6102 140.612C59.3862 140.612 59.1662 140.688 58.9502 140.84C58.7422 140.992 58.5862 141.18 58.4822 141.404V143.78C58.5862 144.004 58.7422 144.196 58.9502 144.356C59.1662 144.508 59.3862 144.584 59.6102 144.584ZM67.3765 145.496H66.1885V144.908C65.8365 145.396 65.3285 145.64 64.6645 145.64C64.1685 145.64 63.7485 145.468 63.4045 145.124C63.0605 144.772 62.8885 144.3 62.8885 143.708C62.8885 143.116 63.0605 142.656 63.4045 142.328C63.7485 141.992 64.1685 141.824 64.6645 141.824C65.3445 141.824 65.8525 142.056 66.1885 142.52V141.68C66.1885 141.328 66.0885 141.056 65.8885 140.864C65.6965 140.672 65.4205 140.576 65.0605 140.576C64.5325 140.576 64.0525 140.796 63.6205 141.236L63.1525 140.396C63.7125 139.836 64.4205 139.556 65.2765 139.556C65.9165 139.556 66.4245 139.72 66.8005 140.048C67.1845 140.368 67.3765 140.864 67.3765 141.536V145.496ZM65.0965 144.812C65.5765 144.812 65.9405 144.6 66.1885 144.176V143.3C66.0765 143.1 65.9205 142.944 65.7205 142.832C65.5205 142.712 65.3125 142.652 65.0965 142.652C64.7925 142.652 64.5485 142.752 64.3645 142.952C64.1805 143.152 64.0885 143.412 64.0885 143.732C64.0885 144.052 64.1805 144.312 64.3645 144.512C64.5485 144.712 64.7925 144.812 65.0965 144.812ZM68.298 146.972V144.548C68.57 144.492 68.77 144.352 68.898 144.128C69.026 143.904 69.122 143.44 69.186 142.736L69.45 139.7H73.194V144.452H73.818V146.972H72.618V145.496H69.486V146.972H68.298ZM70.542 140.744L70.386 142.832C70.33 143.552 70.114 144.092 69.738 144.452H72.006V140.744H70.542Z" fill="#444444"/>
</svg>
