<svg width="1190" height="600" viewBox="0 0 1190 600" fill="none" xmlns="http://www.w3.org/2000/svg">
<circle cx="85.375" cy="323.099" r="4" fill="#444444"/>
<path d="M44.6941 340.099H43.1401V330.761H46.3181C47.1955 330.761 47.8721 331.041 48.3481 331.601C48.8335 332.152 49.0761 332.838 49.0761 333.659C49.0761 334.49 48.8335 335.185 48.3481 335.745C47.8721 336.296 47.1955 336.571 46.3181 336.571H44.6941V340.099ZM46.1361 335.199C46.5468 335.199 46.8735 335.059 47.1161 334.779C47.3681 334.499 47.4941 334.126 47.4941 333.659C47.4941 333.192 47.3681 332.819 47.1161 332.539C46.8735 332.259 46.5468 332.119 46.1361 332.119H44.6941V335.199H46.1361ZM54.7338 339.245C54.2204 339.926 53.5064 340.267 52.5918 340.267C51.6771 340.267 50.9584 339.926 50.4358 339.245C49.9224 338.564 49.6658 337.719 49.6658 336.711C49.6658 335.703 49.9224 334.863 50.4358 334.191C50.9491 333.51 51.6678 333.169 52.5918 333.169C53.5158 333.169 54.2344 333.51 54.7478 334.191C55.2611 334.863 55.5178 335.703 55.5178 336.711C55.5178 337.719 55.2564 338.564 54.7338 339.245ZM51.4858 338.363C51.7378 338.811 52.1064 339.035 52.5918 339.035C53.0771 339.035 53.4458 338.811 53.6978 338.363C53.9498 337.915 54.0758 337.364 54.0758 336.711C54.0758 336.058 53.9498 335.512 53.6978 335.073C53.4458 334.625 53.0771 334.401 52.5918 334.401C52.1064 334.401 51.7378 334.625 51.4858 335.073C51.2338 335.512 51.1078 336.058 51.1078 336.711C51.1078 337.364 51.2338 337.915 51.4858 338.363ZM61.5277 339.357C61.0424 339.964 60.3564 340.267 59.4697 340.267C58.5831 340.267 57.8644 339.936 57.3137 339.273C56.7724 338.601 56.5017 337.747 56.5017 336.711C56.5017 335.675 56.7724 334.826 57.3137 334.163C57.8551 333.5 58.5737 333.169 59.4697 333.169C60.3564 333.169 61.0424 333.472 61.5277 334.079L60.8137 335.031C60.4871 334.611 60.0857 334.401 59.6097 334.401C59.0964 334.401 58.6904 334.62 58.3917 335.059C58.0931 335.498 57.9437 336.048 57.9437 336.711C57.9437 337.383 58.0931 337.938 58.3917 338.377C58.6904 338.816 59.0964 339.035 59.6097 339.035C60.0764 339.035 60.4777 338.825 60.8137 338.405L61.5277 339.357ZM65.0003 340.099H63.6003V334.555H62.0743V333.337H66.5263V334.555H65.0003V340.099ZM72.3295 339.245C71.8162 339.926 71.1022 340.267 70.1875 340.267C69.2728 340.267 68.5542 339.926 68.0315 339.245C67.5182 338.564 67.2615 337.719 67.2615 336.711C67.2615 335.703 67.5182 334.863 68.0315 334.191C68.5448 333.51 69.2635 333.169 70.1875 333.169C71.1115 333.169 71.8302 333.51 72.3435 334.191C72.8568 334.863 73.1135 335.703 73.1135 336.711C73.1135 337.719 72.8522 338.564 72.3295 339.245ZM69.0815 338.363C69.3335 338.811 69.7022 339.035 70.1875 339.035C70.6728 339.035 71.0415 338.811 71.2935 338.363C71.5455 337.915 71.6715 337.364 71.6715 336.711C71.6715 336.058 71.5455 335.512 71.2935 335.073C71.0415 334.625 70.6728 334.401 70.1875 334.401C69.7022 334.401 69.3335 334.625 69.0815 335.073C68.8295 335.512 68.7035 336.058 68.7035 336.711C68.7035 337.364 68.8295 337.915 69.0815 338.363ZM77.6394 340.099H74.4334V333.337H77.5554C78.2181 333.337 78.7221 333.5 79.0674 333.827C79.4221 334.144 79.5994 334.555 79.5994 335.059C79.5994 335.451 79.4921 335.782 79.2774 336.053C79.0721 336.314 78.7921 336.496 78.4374 336.599C78.8108 336.683 79.1188 336.884 79.3614 337.201C79.6041 337.509 79.7254 337.864 79.7254 338.265C79.7254 338.816 79.5481 339.259 79.1934 339.595C78.8481 339.931 78.3301 340.099 77.6394 340.099ZM77.3454 338.923C77.9801 338.923 78.2974 338.643 78.2974 338.083C78.2974 337.84 78.2134 337.635 78.0454 337.467C77.8868 337.299 77.6534 337.215 77.3454 337.215H75.8334V338.923H77.3454ZM77.2894 336.053C77.8681 336.053 78.1574 335.796 78.1574 335.283C78.1574 335.05 78.0828 334.863 77.9334 334.723C77.7934 334.574 77.5788 334.499 77.2894 334.499H75.8334V336.053H77.2894ZM83.7757 337.313H80.8497V336.109H83.7757V337.313ZM86.4155 340.099H85.0155V333.337H86.4155V335.997H88.7675V333.337H90.1535V340.099H88.7675V337.215H86.4155V340.099ZM96.6964 340.099H95.3104V339.413C94.8997 339.982 94.307 340.267 93.5324 340.267C92.9537 340.267 92.4637 340.066 92.0624 339.665C91.661 339.254 91.4604 338.704 91.4604 338.013C91.4604 337.322 91.661 336.786 92.0624 336.403C92.4637 336.011 92.9537 335.815 93.5324 335.815C94.3257 335.815 94.9184 336.086 95.3104 336.627V335.647C95.3104 335.236 95.1937 334.919 94.9604 334.695C94.7364 334.471 94.4144 334.359 93.9944 334.359C93.3784 334.359 92.8184 334.616 92.3144 335.129L91.7684 334.149C92.4217 333.496 93.2477 333.169 94.2464 333.169C94.993 333.169 95.5857 333.36 96.0244 333.743C96.4724 334.116 96.6964 334.695 96.6964 335.479V340.099ZM94.0364 339.301C94.5964 339.301 95.021 339.054 95.3104 338.559V337.537C95.1797 337.304 94.9977 337.122 94.7644 336.991C94.531 336.851 94.2884 336.781 94.0364 336.781C93.6817 336.781 93.397 336.898 93.1824 337.131C92.9677 337.364 92.8604 337.668 92.8604 338.041C92.8604 338.414 92.9677 338.718 93.1824 338.951C93.397 339.184 93.6817 339.301 94.0364 339.301ZM100.866 337.313H97.9395V336.109H100.866V337.313ZM101.601 341.821V338.881C101.919 338.834 102.157 338.746 102.315 338.615C102.474 338.484 102.628 338.176 102.777 337.691C102.927 337.206 103.043 336.482 103.127 335.521L103.561 330.761H108.699V338.727H109.525V341.821H107.971V340.099H103.141V341.821H101.601ZM104.667 335.633C104.537 337.052 104.187 338.083 103.617 338.727H107.145V332.119H104.975L104.667 335.633ZM115.287 339.245C114.773 339.926 114.059 340.267 113.145 340.267C112.23 340.267 111.511 339.926 110.989 339.245C110.475 338.564 110.219 337.719 110.219 336.711C110.219 335.703 110.475 334.863 110.989 334.191C111.502 333.51 112.221 333.169 113.145 333.169C114.069 333.169 114.787 333.51 115.301 334.191C115.814 334.863 116.071 335.703 116.071 336.711C116.071 337.719 115.809 338.564 115.287 339.245ZM112.039 338.363C112.291 338.811 112.659 339.035 113.145 339.035C113.63 339.035 113.999 338.811 114.251 338.363C114.503 337.915 114.629 337.364 114.629 336.711C114.629 336.058 114.503 335.512 114.251 335.073C113.999 334.625 113.63 334.401 113.145 334.401C112.659 334.401 112.291 334.625 112.039 335.073C111.787 335.512 111.661 336.058 111.661 336.711C111.661 337.364 111.787 337.915 112.039 338.363ZM118.79 340.099H117.39V333.337H118.79V335.997H121.142V333.337H122.528V340.099H121.142V337.215H118.79V340.099ZM123.947 342.745L124.157 341.513C124.279 341.578 124.428 341.611 124.605 341.611C124.979 341.611 125.235 341.424 125.375 341.051L125.655 340.239L123.387 333.337H124.871L126.369 338.419L127.881 333.337H129.365L126.691 341.373C126.514 341.914 126.262 342.292 125.935 342.507C125.618 342.731 125.207 342.843 124.703 342.843C124.414 342.843 124.162 342.81 123.947 342.745Z" fill="#444444"/>
<circle cx="53.875" cy="382.496" r="4" fill="#444444"/>
<path d="M31.0775 399.496H29.2435L26.8355 395.646L26.1355 396.71V399.496H24.5815V390.158H26.1355V394.652L29.0335 390.158H30.8535L27.8015 394.568L31.0775 399.496ZM36.9317 398.698C36.4931 399.342 35.8957 399.664 35.1397 399.664C34.3837 399.664 33.8051 399.305 33.4037 398.586V402.072H32.0037V392.734H33.4037V393.63C33.5997 393.294 33.8517 393.033 34.1597 392.846C34.4677 392.66 34.7944 392.566 35.1397 392.566C35.9051 392.566 36.5071 392.884 36.9457 393.518C37.3844 394.153 37.6037 395.016 37.6037 396.108C37.6037 397.191 37.3797 398.054 36.9317 398.698ZM34.7197 398.432C35.1864 398.432 35.5411 398.218 35.7837 397.788C36.0357 397.35 36.1617 396.79 36.1617 396.108C36.1617 395.427 36.0357 394.872 35.7837 394.442C35.5411 394.013 35.1864 393.798 34.7197 393.798C34.4584 393.798 34.2017 393.887 33.9497 394.064C33.7071 394.242 33.5251 394.461 33.4037 394.722V397.494C33.5251 397.756 33.7071 397.98 33.9497 398.166C34.2017 398.344 34.4584 398.432 34.7197 398.432ZM43.7804 399.496H42.3944V398.81C41.9837 399.38 41.391 399.664 40.6164 399.664C40.0377 399.664 39.5477 399.464 39.1464 399.062C38.745 398.652 38.5444 398.101 38.5444 397.41C38.5444 396.72 38.745 396.183 39.1464 395.8C39.5477 395.408 40.0377 395.212 40.6164 395.212C41.4097 395.212 42.0024 395.483 42.3944 396.024V395.044C42.3944 394.634 42.2777 394.316 42.0444 394.092C41.8204 393.868 41.4984 393.756 41.0784 393.756C40.4624 393.756 39.9024 394.013 39.3984 394.526L38.8524 393.546C39.5057 392.893 40.3317 392.566 41.3304 392.566C42.077 392.566 42.6697 392.758 43.1084 393.14C43.5564 393.514 43.7804 394.092 43.7804 394.876V399.496ZM41.1204 398.698C41.6804 398.698 42.105 398.451 42.3944 397.956V396.934C42.2637 396.701 42.0817 396.519 41.8484 396.388C41.615 396.248 41.3724 396.178 41.1204 396.178C40.7657 396.178 40.481 396.295 40.2664 396.528C40.0517 396.762 39.9444 397.065 39.9444 397.438C39.9444 397.812 40.0517 398.115 40.2664 398.348C40.481 398.582 40.7657 398.698 41.1204 398.698ZM50.1195 398.754C49.6342 399.361 48.9482 399.664 48.0615 399.664C47.1748 399.664 46.4562 399.333 45.9055 398.67C45.3642 397.998 45.0935 397.144 45.0935 396.108C45.0935 395.072 45.3642 394.223 45.9055 393.56C46.4468 392.898 47.1655 392.566 48.0615 392.566C48.9482 392.566 49.6342 392.87 50.1195 393.476L49.4055 394.428C49.0788 394.008 48.6775 393.798 48.2015 393.798C47.6882 393.798 47.2822 394.018 46.9835 394.456C46.6848 394.895 46.5355 395.446 46.5355 396.108C46.5355 396.78 46.6848 397.336 46.9835 397.774C47.2822 398.213 47.6882 398.432 48.2015 398.432C48.6682 398.432 49.0695 398.222 49.4055 397.802L50.1195 398.754ZM52.6401 399.496H51.2401V392.734H52.6401V395.394H54.9921V392.734H56.3781V399.496H54.9921V396.612H52.6401V399.496ZM62.767 398.642C62.2537 399.324 61.5397 399.664 60.625 399.664C59.7103 399.664 58.9917 399.324 58.469 398.642C57.9557 397.961 57.699 397.116 57.699 396.108C57.699 395.1 57.9557 394.26 58.469 393.588C58.9823 392.907 59.701 392.566 60.625 392.566C61.549 392.566 62.2677 392.907 62.781 393.588C63.2943 394.26 63.551 395.1 63.551 396.108C63.551 397.116 63.2897 397.961 62.767 398.642ZM59.519 397.76C59.771 398.208 60.1397 398.432 60.625 398.432C61.1103 398.432 61.479 398.208 61.731 397.76C61.983 397.312 62.109 396.762 62.109 396.108C62.109 395.455 61.983 394.909 61.731 394.47C61.479 394.022 61.1103 393.798 60.625 393.798C60.1397 393.798 59.771 394.022 59.519 394.47C59.267 394.909 59.141 395.455 59.141 396.108C59.141 396.762 59.267 397.312 59.519 397.76ZM64.2969 401.218V398.39C64.6143 398.325 64.8476 398.162 64.9969 397.9C65.1463 397.639 65.2583 397.098 65.3329 396.276L65.6409 392.734H70.0089V398.278H70.7369V401.218H69.3369V399.496H65.6829V401.218H64.2969ZM66.9149 393.952L66.7329 396.388C66.6676 397.228 66.4156 397.858 65.9769 398.278H68.6229V393.952H66.9149ZM76.6612 399.496H75.2752V398.81C74.8646 399.38 74.2719 399.664 73.4972 399.664C72.9186 399.664 72.4286 399.464 72.0272 399.062C71.6259 398.652 71.4252 398.101 71.4252 397.41C71.4252 396.72 71.6259 396.183 72.0272 395.8C72.4286 395.408 72.9186 395.212 73.4972 395.212C74.2906 395.212 74.8832 395.483 75.2752 396.024V395.044C75.2752 394.634 75.1586 394.316 74.9252 394.092C74.7012 393.868 74.3792 393.756 73.9592 393.756C73.3432 393.756 72.7832 394.013 72.2792 394.526L71.7332 393.546C72.3866 392.893 73.2126 392.566 74.2112 392.566C74.9579 392.566 75.5506 392.758 75.9892 393.14C76.4372 393.514 76.6612 394.092 76.6612 394.876V399.496ZM74.0012 398.698C74.5612 398.698 74.9859 398.451 75.2752 397.956V396.934C75.1446 396.701 74.9626 396.519 74.7292 396.388C74.4959 396.248 74.2532 396.178 74.0012 396.178C73.6466 396.178 73.3619 396.295 73.1472 396.528C72.9326 396.762 72.8252 397.065 72.8252 397.438C72.8252 397.812 72.9326 398.115 73.1472 398.348C73.3619 398.582 73.6466 398.698 74.0012 398.698ZM83.2384 398.698C82.7997 399.342 82.2024 399.664 81.4464 399.664C80.6904 399.664 80.1117 399.305 79.7104 398.586V402.072H78.3104V392.734H79.7104V393.63C79.9064 393.294 80.1584 393.033 80.4664 392.846C80.7744 392.66 81.101 392.566 81.4464 392.566C82.2117 392.566 82.8137 392.884 83.2524 393.518C83.691 394.153 83.9104 395.016 83.9104 396.108C83.9104 397.191 83.6864 398.054 83.2384 398.698ZM81.0264 398.432C81.493 398.432 81.8477 398.218 82.0904 397.788C82.3424 397.35 82.4684 396.79 82.4684 396.108C82.4684 395.427 82.3424 394.872 82.0904 394.442C81.8477 394.013 81.493 393.798 81.0264 393.798C80.765 393.798 80.5084 393.887 80.2564 394.064C80.0137 394.242 79.8317 394.461 79.7104 394.722V397.494C79.8317 397.756 80.0137 397.98 80.2564 398.166C80.5084 398.344 80.765 398.432 81.0264 398.432Z" fill="#444444"/>
<circle cx="112.5" cy="364.496" r="4" fill="#444444"/>
<path d="M91.3919 380.496H88.2719V372.492H91.2959C91.9519 372.492 92.4599 372.684 92.8199 373.068C93.1799 373.452 93.3599 373.94 93.3599 374.532C93.3599 375.02 93.2399 375.424 92.9999 375.744C92.7679 376.056 92.4679 376.264 92.0999 376.368C92.4919 376.424 92.8199 376.644 93.0839 377.028C93.3559 377.404 93.4919 377.84 93.4919 378.336C93.4919 378.984 93.3119 379.508 92.9519 379.908C92.5919 380.3 92.0719 380.496 91.3919 380.496ZM91.0079 375.828C91.3359 375.828 91.5799 375.732 91.7399 375.54C91.9079 375.34 91.9919 375.076 91.9919 374.748C91.9919 374.42 91.9079 374.156 91.7399 373.956C91.5719 373.756 91.3279 373.656 91.0079 373.656H89.6039V375.828H91.0079ZM91.0559 379.32C91.4079 379.32 91.6719 379.22 91.8479 379.02C92.0319 378.812 92.1239 378.524 92.1239 378.156C92.1239 377.82 92.0319 377.544 91.8479 377.328C91.6639 377.112 91.3999 377.004 91.0559 377.004H89.6039V379.32H91.0559ZM98.7484 379.764C98.3084 380.348 97.6964 380.64 96.9124 380.64C96.1284 380.64 95.5124 380.348 95.0644 379.764C94.6244 379.18 94.4044 378.456 94.4044 377.592C94.4044 376.728 94.6244 376.008 95.0644 375.432C95.5044 374.848 96.1204 374.556 96.9124 374.556C97.7044 374.556 98.3204 374.848 98.7604 375.432C99.2004 376.008 99.4204 376.728 99.4204 377.592C99.4204 378.456 99.1964 379.18 98.7484 379.764ZM95.9644 379.008C96.1804 379.392 96.4964 379.584 96.9124 379.584C97.3284 379.584 97.6444 379.392 97.8604 379.008C98.0764 378.624 98.1844 378.152 98.1844 377.592C98.1844 377.032 98.0764 376.564 97.8604 376.188C97.6444 375.804 97.3284 375.612 96.9124 375.612C96.4964 375.612 96.1804 375.804 95.9644 376.188C95.7484 376.564 95.6404 377.032 95.6404 377.592C95.6404 378.152 95.7484 378.624 95.9644 379.008ZM100.06 380.64V379.62C100.308 379.62 100.5 379.488 100.636 379.224C100.78 378.96 100.884 378.464 100.948 377.736L101.212 374.7H104.956V380.496H103.768V375.744H102.304L102.148 377.832C102.068 378.856 101.856 379.58 101.512 380.004C101.168 380.428 100.684 380.64 100.06 380.64ZM109.976 374.7V375.744H107.576V380.496H106.376V374.7H109.976ZM114.955 379.764C114.515 380.348 113.903 380.64 113.119 380.64C112.335 380.64 111.719 380.348 111.271 379.764C110.831 379.18 110.611 378.456 110.611 377.592C110.611 376.728 110.831 376.008 111.271 375.432C111.711 374.848 112.327 374.556 113.119 374.556C113.911 374.556 114.527 374.848 114.967 375.432C115.407 376.008 115.627 376.728 115.627 377.592C115.627 378.456 115.403 379.18 114.955 379.764ZM112.171 379.008C112.387 379.392 112.703 379.584 113.119 379.584C113.535 379.584 113.851 379.392 114.067 379.008C114.283 378.624 114.391 378.152 114.391 377.592C114.391 377.032 114.283 376.564 114.067 376.188C113.851 375.804 113.535 375.612 113.119 375.612C112.703 375.612 112.387 375.804 112.171 376.188C111.955 376.564 111.847 377.032 111.847 377.592C111.847 378.152 111.955 378.624 112.171 379.008ZM120.359 374.7V375.744H117.959V380.496H116.759V374.7H120.359ZM125.506 379.812C125.13 380.364 124.618 380.64 123.97 380.64C123.322 380.64 122.826 380.332 122.482 379.716V382.704H121.282V374.7H122.482V375.468C122.65 375.18 122.866 374.956 123.13 374.796C123.394 374.636 123.674 374.556 123.97 374.556C124.626 374.556 125.142 374.828 125.518 375.372C125.894 375.916 126.082 376.656 126.082 377.592C126.082 378.52 125.89 379.26 125.506 379.812ZM123.61 379.584C124.01 379.584 124.314 379.4 124.522 379.032C124.738 378.656 124.846 378.176 124.846 377.592C124.846 377.008 124.738 376.532 124.522 376.164C124.314 375.796 124.01 375.612 123.61 375.612C123.386 375.612 123.166 375.688 122.95 375.84C122.742 375.992 122.586 376.18 122.482 376.404V378.78C122.586 379.004 122.742 379.196 122.95 379.356C123.166 379.508 123.386 379.584 123.61 379.584ZM131.376 380.496H130.188V379.908C129.836 380.396 129.328 380.64 128.664 380.64C128.168 380.64 127.748 380.468 127.404 380.124C127.06 379.772 126.888 379.3 126.888 378.708C126.888 378.116 127.06 377.656 127.404 377.328C127.748 376.992 128.168 376.824 128.664 376.824C129.344 376.824 129.852 377.056 130.188 377.52V376.68C130.188 376.328 130.088 376.056 129.888 375.864C129.696 375.672 129.42 375.576 129.06 375.576C128.532 375.576 128.052 375.796 127.62 376.236L127.152 375.396C127.712 374.836 128.42 374.556 129.276 374.556C129.916 374.556 130.424 374.72 130.8 375.048C131.184 375.368 131.376 375.864 131.376 376.536V380.496ZM129.096 379.812C129.576 379.812 129.94 379.6 130.188 379.176V378.3C130.076 378.1 129.92 377.944 129.72 377.832C129.52 377.712 129.312 377.652 129.096 377.652C128.792 377.652 128.548 377.752 128.364 377.952C128.18 378.152 128.088 378.412 128.088 378.732C128.088 379.052 128.18 379.312 128.364 379.512C128.548 379.712 128.792 379.812 129.096 379.812ZM132.298 381.972V379.548C132.57 379.492 132.77 379.352 132.898 379.128C133.026 378.904 133.122 378.44 133.186 377.736L133.45 374.7H137.194V379.452H137.818V381.972H136.618V380.496H133.486V381.972H132.298ZM134.542 375.744L134.386 377.832C134.33 378.552 134.114 379.092 133.738 379.452H136.006V375.744H134.542Z" fill="#444444"/>
</svg>
