<svg width="1250" height="471" viewBox="0 0 1250 471" fill="none" xmlns="http://www.w3.org/2000/svg">
<g clip-path="url(#clip0_1_1145)">
<rect width="1250" height="471" fill="#CB0F41"/>
<g opacity="0.4">
<path d="M1025.8 260.607L1271.73 260.607L1271.73 257.679L1025.8 257.679L1025.8 260.607Z" fill="#A30C33"/>
<path d="M1283.44 272.315L1286.37 272.315L1286.37 289.882C1286.37 290.321 1286.22 290.614 1285.93 290.906L1196.34 380.203C1196.05 380.496 1195.75 380.642 1195.31 380.642L1113.63 380.642L1113.63 377.714L1194.73 377.714L1283.44 289.296L1283.44 272.315Z" fill="#A30C33"/>
<path d="M1071.18 124.464L1180.97 124.464C1181.41 124.464 1181.7 124.61 1181.99 124.903L1285.93 228.838C1286.22 229.131 1286.37 229.424 1286.37 229.863L1286.37 244.501L1283.44 244.501L1283.44 230.448L1180.38 127.391L1071.18 127.391L1071.18 124.464Z" fill="#A30C33"/>
<path d="M1144.38 218.152L1203.22 218.152C1203.66 218.152 1203.96 218.298 1204.25 218.591L1243.77 257.823L1241.72 259.873L1202.64 221.08L1144.38 221.08L1144.38 218.152Z" fill="#A30C33"/>
<path d="M1185.07 257.971L1187.12 260.02L1147.74 299.691C1147.45 299.984 1147.15 300.13 1146.71 300.13L1087.28 300.13L1087.28 297.203L1146.13 297.203L1185.07 257.971Z" fill="#A30C33"/>
<path d="M961.396 332.335L1193.86 332.335C1194.3 332.335 1194.59 332.481 1194.88 332.774L1218.16 356.343L1216.11 358.392L1193.27 335.263L961.396 335.263L961.396 332.335Z" fill="#A30C33"/>
<path d="M1168.68 378.155L1170.73 380.205L1132.67 418.265C1132.37 418.558 1132.08 418.705 1131.64 418.705L1009.7 418.705L1009.7 415.777L1131.06 415.777L1168.68 378.155Z" fill="#A30C33"/>
<path d="M1144.96 52.7323L1203.96 111.726C1204.25 112.019 1204.39 112.312 1204.39 112.751L1204.39 147.884L1201.47 147.884L1201.47 113.337L1142.91 54.7817L1144.96 52.7323Z" fill="#A30C33"/>
<path d="M1158.28 125.345L1160.33 127.395L1121.54 166.48C1121.25 166.773 1120.95 166.919 1120.51 166.919L973.102 166.919L973.102 163.992L1119.78 163.992L1158.28 125.345Z" fill="#A30C33"/>
<path d="M1021.41 83.4737L1086.99 83.4737C1087.43 83.4737 1087.72 83.6201 1088.02 83.9129L1129.3 125.194L1127.25 127.244L1086.41 86.4015L1021.41 86.4015L1021.41 83.4737Z" fill="#A30C33"/>
<path d="M1009.7 410.506C1005.98 410.506 1002.96 413.521 1002.96 417.24C1002.96 420.959 1005.98 423.974 1009.7 423.974C1013.41 423.974 1016.43 420.959 1016.43 417.24C1016.43 413.521 1013.41 410.506 1009.7 410.506Z" fill="#A30C33"/>
<path d="M1100.46 363.663C1108.95 363.663 1115.97 370.543 1115.97 379.18C1115.97 387.817 1109.09 394.697 1100.46 394.697C1091.82 394.697 1084.94 387.817 1084.94 379.18C1084.94 370.543 1091.97 363.663 1100.46 363.663ZM1100.46 391.769C1107.34 391.769 1113.04 386.06 1113.04 379.18C1113.04 372.299 1107.34 366.59 1100.46 366.59C1093.58 366.59 1087.87 372.299 1087.87 379.18C1087.87 386.06 1093.58 391.769 1100.46 391.769Z" fill="#A30C33"/>
<path d="M1100.46 372.448C1096.74 372.448 1093.73 375.463 1093.73 379.182C1093.73 382.901 1096.74 385.916 1100.46 385.916C1104.18 385.916 1107.2 382.901 1107.2 379.182C1107.2 375.463 1104.18 372.448 1100.46 372.448Z" fill="#A30C33"/>
<path d="M954.657 333.506C954.657 329.846 957.731 326.772 961.391 326.772C965.051 326.772 968.125 329.846 968.125 333.506C968.125 337.166 965.051 340.24 961.391 340.24C957.731 340.24 954.657 337.312 954.657 333.506Z" fill="#A30C33"/>
<path d="M1087.29 291.932C1083.57 291.932 1080.55 294.947 1080.55 298.666C1080.55 302.385 1083.57 305.4 1087.29 305.4C1091 305.4 1094.02 302.385 1094.02 298.666C1094.02 294.947 1091 291.932 1087.29 291.932Z" fill="#A30C33"/>
<path d="M1012.63 243.624C1021.12 243.624 1028.14 250.504 1028.14 259.141C1028.14 267.777 1021.26 274.658 1012.63 274.658C1003.99 274.658 997.11 267.777 997.11 259.141C997.11 250.504 1004.14 243.624 1012.63 243.624ZM1012.63 271.73C1019.51 271.73 1025.22 266.021 1025.22 259.141C1025.22 252.26 1019.51 246.551 1012.63 246.551C1005.75 246.551 1000.04 252.26 1000.04 259.141C1000.04 266.021 1005.75 271.73 1012.63 271.73Z" fill="#A30C33"/>
<path d="M1012.63 252.409C1008.91 252.409 1005.9 255.424 1005.9 259.143C1005.9 262.862 1008.91 265.876 1012.63 265.876C1016.35 265.876 1019.37 262.862 1019.37 259.143C1019.37 255.424 1016.35 252.409 1012.63 252.409Z" fill="#A30C33"/>
<path d="M1144.38 212.881C1140.66 212.881 1137.65 215.896 1137.65 219.615C1137.65 223.334 1140.66 226.349 1144.38 226.349C1148.1 226.349 1151.12 223.334 1151.12 219.615C1151.12 215.896 1148.1 212.881 1144.38 212.881Z" fill="#A30C33"/>
<path d="M973.098 158.717C969.379 158.717 966.364 161.732 966.364 165.451C966.364 169.17 969.379 172.185 973.098 172.185C976.817 172.185 979.832 169.17 979.832 165.451C979.832 161.732 976.817 158.717 973.098 158.717Z" fill="#A30C33"/>
<path d="M1058.01 110.702C1066.5 110.702 1073.52 117.582 1073.52 126.219C1073.52 134.856 1066.64 141.736 1058.01 141.736C1049.37 141.736 1042.49 134.856 1042.49 126.219C1042.49 117.582 1049.52 110.702 1058.01 110.702ZM1058.01 138.808C1064.89 138.808 1070.6 133.099 1070.6 126.219C1070.6 119.339 1064.89 113.629 1058.01 113.629C1051.13 113.629 1045.42 119.339 1045.42 126.219C1045.42 133.099 1051.13 138.808 1058.01 138.808Z" fill="#A30C33"/>
<path d="M1051.27 126.221C1051.27 122.561 1054.35 119.487 1058.01 119.487C1061.67 119.487 1064.74 122.561 1064.74 126.221C1064.74 129.88 1061.67 132.955 1058.01 132.955C1054.35 132.955 1051.27 129.88 1051.27 126.221Z" fill="#A30C33"/>
<path d="M1021.41 78.2057C1017.69 78.2057 1014.68 81.2205 1014.68 84.9395C1014.68 88.6585 1017.69 91.6733 1021.41 91.6733C1025.13 91.6733 1028.14 88.6585 1028.14 84.9395C1028.14 81.2205 1025.13 78.2057 1021.41 78.2057Z" fill="#A30C33"/>
<path d="M1137.2 53.7599C1137.2 50.1002 1140.27 47.026 1143.93 47.026C1147.59 47.026 1150.66 50.1002 1150.66 53.7599C1150.66 57.4195 1147.59 60.4937 1143.93 60.4937C1140.12 60.3473 1137.2 57.4195 1137.2 53.7599Z" fill="#A30C33"/>
<g opacity="0.4">
<path d="M1137.2 260.479L1274.65 260.479L1274.65 257.808L1137.2 257.808L1137.2 260.479Z" fill="black"/>
<path d="M1283.44 272.315L1286.37 272.315L1286.37 289.882C1286.37 290.321 1286.22 290.614 1285.93 290.906L1196.34 380.203C1196.05 380.496 1195.75 380.642 1195.31 380.642L1113.63 380.642L1113.63 377.714L1194.73 377.714L1283.44 289.296L1283.44 272.315Z" fill="black"/>
<path d="M1071.18 124.464L1180.97 124.464C1181.41 124.464 1181.7 124.61 1181.99 124.903L1285.93 228.838C1286.22 229.131 1286.37 229.424 1286.37 229.863L1286.37 244.501L1283.44 244.501L1283.44 230.448L1180.38 127.391L1071.18 127.391L1071.18 124.464Z" fill="black"/>
<path d="M1144.37 218.152L1203.22 218.152C1203.66 218.152 1203.95 218.298 1204.24 218.591L1243.77 257.823L1241.72 259.873L1202.63 221.08L1144.37 221.08L1144.37 218.152Z" fill="black"/>
<path d="M1185.07 257.971L1187.12 260.02L1147.74 299.691C1147.45 299.984 1147.15 300.13 1146.71 300.13L1107.28 300.13L1107.28 297.203L1146.13 297.203L1185.07 257.971Z" fill="black"/>
<path d="M961.388 332.335L1193.85 332.335C1194.29 332.335 1194.58 332.481 1194.88 332.774L1218.15 356.343L1216.1 358.392L1193.27 335.263L961.388 335.263L961.388 332.335Z" fill="black"/>
<path d="M1168.67 378.155L1170.72 380.205L1132.66 418.265C1132.37 418.558 1132.07 418.705 1131.63 418.705L1009.69 418.705L1009.69 415.777L1131.05 415.777L1168.67 378.155Z" fill="black"/>
<path d="M1144.96 52.7323L1203.95 111.726C1204.24 112.019 1204.39 112.312 1204.39 112.751L1204.39 147.884L1201.46 147.884L1201.46 113.337L1142.91 54.7817L1144.96 52.7323Z" fill="black"/>
<path d="M1158.28 125.345L1160.33 127.395L1121.54 166.48C1121.25 166.773 1120.95 166.919 1120.51 166.919L973.102 166.919L973.102 163.992L1119.78 163.992L1158.28 125.345Z" fill="black"/>
<path d="M1021.41 83.4737L1086.99 83.4737C1087.43 83.4737 1087.72 83.6201 1088.02 83.9129L1129.3 125.194L1127.25 127.244L1086.41 86.4015L1021.41 86.4015L1021.41 83.4737Z" fill="black"/>
<path d="M1009.7 410.506C1005.98 410.506 1002.96 413.521 1002.96 417.24C1002.96 420.959 1005.98 423.974 1009.7 423.974C1013.41 423.974 1016.43 420.959 1016.43 417.24C1016.43 413.521 1013.41 410.506 1009.7 410.506Z" fill="black"/>
<path d="M1100.46 363.663C1108.95 363.663 1115.98 370.543 1115.98 379.18C1115.98 387.817 1109.1 394.697 1100.46 394.697C1091.82 394.697 1084.94 387.817 1084.94 379.18C1084.94 370.543 1091.97 363.663 1100.46 363.663ZM1100.46 391.769C1107.34 391.769 1113.05 386.06 1113.05 379.18C1113.05 372.299 1107.34 366.59 1100.46 366.59C1093.58 366.59 1087.87 372.299 1087.87 379.18C1087.87 386.06 1093.58 391.769 1100.46 391.769Z" fill="black"/>
<path d="M954.653 333.506C954.653 329.846 957.728 326.772 961.387 326.772C965.047 326.772 968.121 329.846 968.121 333.506C968.121 337.166 965.047 340.24 961.387 340.24C957.728 340.24 954.653 337.312 954.653 333.506Z" fill="black"/>
<path d="M1107.29 291.932C1103.57 291.932 1100.55 294.947 1100.55 298.666C1100.55 302.385 1103.57 305.4 1107.29 305.4C1111 305.4 1114.02 302.385 1114.02 298.666C1114.02 294.947 1111 291.932 1107.29 291.932Z" fill="black"/>
<path d="M1144.38 212.881C1140.66 212.881 1137.65 215.896 1137.65 219.615C1137.65 223.334 1140.66 226.349 1144.38 226.349C1148.1 226.349 1151.11 223.334 1151.11 219.615C1151.11 215.896 1148.1 212.881 1144.38 212.881Z" fill="black"/>
<path d="M1134 253.139C1130.28 253.139 1127.27 256.154 1127.27 259.873C1127.27 263.592 1130.28 266.606 1134 266.606C1137.72 266.606 1140.73 263.592 1140.73 259.873C1140.73 256.154 1137.72 253.139 1134 253.139Z" fill="black"/>
<path d="M973.098 158.717C969.379 158.717 966.364 161.732 966.364 165.451C966.364 169.17 969.379 172.185 973.098 172.185C976.817 172.185 979.832 169.17 979.832 165.451C979.832 161.732 976.817 158.717 973.098 158.717Z" fill="black"/>
<path d="M1058 110.702C1066.49 110.702 1073.52 117.582 1073.52 126.219C1073.52 134.856 1066.64 141.736 1058 141.736C1049.37 141.736 1042.49 134.856 1042.49 126.219C1042.49 117.582 1049.51 110.702 1058 110.702ZM1058 138.808C1064.88 138.808 1070.59 133.099 1070.59 126.219C1070.59 119.339 1064.88 113.629 1058 113.629C1051.12 113.629 1045.41 119.339 1045.41 126.219C1045.41 133.099 1051.12 138.808 1058 138.808Z" fill="black"/>
<path d="M1021.41 78.2057C1017.69 78.2057 1014.67 81.2205 1014.67 84.9395C1014.67 88.6585 1017.69 91.6733 1021.41 91.6733C1025.13 91.6733 1028.14 88.6585 1028.14 84.9395C1028.14 81.2205 1025.13 78.2057 1021.41 78.2057Z" fill="black"/>
<path d="M1137.2 53.7599C1137.2 50.1002 1140.27 47.026 1143.93 47.026C1147.59 47.026 1150.66 50.1002 1150.66 53.7599C1150.66 57.4195 1147.59 60.4937 1143.93 60.4937C1140.12 60.3473 1137.2 57.4195 1137.2 53.7599Z" fill="black"/>
</g>
</g>
<g opacity="0.4">
<path d="M228.904 210.393L-17.0273 210.393V213.321L228.904 213.321V210.393Z" fill="#A30C33"/>
<path d="M-28.7324 198.685H-31.6602V181.118C-31.6602 180.679 -31.5138 180.386 -31.221 180.094L58.3683 90.7972C58.6611 90.5044 58.9539 90.358 59.393 90.358L141.077 90.358V93.2858L59.9786 93.2858L-28.7324 181.704V198.685Z" fill="#A30C33"/>
<path d="M183.53 346.537H73.739C73.2998 346.537 73.007 346.39 72.7143 346.097L-31.221 242.162C-31.5138 241.869 -31.6602 241.577 -31.6602 241.137V226.499H-28.7324V240.552L74.3245 343.609H183.53V346.537Z" fill="#A30C33"/>
<path d="M110.331 252.848H51.483C51.0438 252.848 50.751 252.702 50.4583 252.409L10.9336 213.177L12.983 211.128L52.0686 249.92H110.331V252.848Z" fill="#A30C33"/>
<path d="M69.6393 213.029L67.5898 210.98L106.968 171.309C107.261 171.016 107.554 170.87 107.993 170.87H167.426V173.798H108.578L69.6393 213.029Z" fill="#A30C33"/>
<path d="M293.311 138.665H60.8472C60.4081 138.665 60.1153 138.519 59.8225 138.226L36.5469 114.657L38.5963 112.608L61.4328 135.737H293.311V138.665Z" fill="#A30C33"/>
<path d="M86.0299 92.8488L83.9805 90.7994L122.041 52.7386C122.334 52.4458 122.627 52.2994 123.066 52.2994L245.007 52.2994V55.2272L123.652 55.2272L86.0299 92.8488Z" fill="#A30C33"/>
<path d="M109.746 418.268L50.7516 359.274C50.4589 358.981 50.3125 358.688 50.3125 358.249V323.116H53.2403V357.663L111.795 416.218L109.746 418.268Z" fill="#A30C33"/>
<path d="M96.4244 345.655L94.375 343.605L133.168 304.52C133.461 304.227 133.753 304.081 134.192 304.081H281.605V307.008H134.924L96.4244 345.655Z" fill="#A30C33"/>
<path d="M233.298 387.526H167.716C167.277 387.526 166.984 387.38 166.692 387.087L125.41 345.806L127.46 343.756L168.302 384.599H233.298V387.526Z" fill="#A30C33"/>
<path d="M245.011 60.4937C248.73 60.4937 251.745 57.4788 251.745 53.7598C251.745 50.0408 248.73 47.026 245.011 47.026C241.292 47.026 238.277 50.0408 238.277 53.7598C238.277 57.4788 241.292 60.4937 245.011 60.4937Z" fill="#A30C33"/>
<path d="M154.251 107.338C145.761 107.338 138.734 100.457 138.734 91.8204C138.734 83.1836 145.615 76.3033 154.251 76.3033C162.888 76.3033 169.769 83.1836 169.769 91.8204C169.769 100.457 162.742 107.338 154.251 107.338ZM154.251 79.2311C147.371 79.2311 141.662 84.9402 141.662 91.8204C141.662 98.7007 147.371 104.41 154.251 104.41C161.132 104.41 166.841 98.7007 166.841 91.8204C166.841 84.9402 161.132 79.2311 154.251 79.2311Z" fill="#A30C33"/>
<path d="M154.246 98.5523C157.965 98.5523 160.979 95.5374 160.979 91.8184C160.979 88.0994 157.965 85.0846 154.246 85.0846C150.527 85.0846 147.512 88.0994 147.512 91.8184C147.512 95.5374 150.527 98.5523 154.246 98.5523Z" fill="#A30C33"/>
<path d="M300.05 137.494C300.05 141.154 296.976 144.228 293.316 144.228C289.656 144.228 286.582 141.154 286.582 137.494C286.582 133.835 289.656 130.76 293.316 130.76C296.976 130.76 300.05 133.688 300.05 137.494Z" fill="#A30C33"/>
<path d="M167.421 179.068C171.14 179.068 174.155 176.053 174.155 172.334C174.155 168.615 171.14 165.6 167.421 165.6C163.702 165.6 160.688 168.615 160.688 172.334C160.688 176.053 163.702 179.068 167.421 179.068Z" fill="#A30C33"/>
<path d="M242.08 227.377C233.589 227.377 226.562 220.496 226.562 211.86C226.562 203.223 233.443 196.342 242.08 196.342C250.716 196.342 257.597 203.223 257.597 211.86C257.597 220.496 250.57 227.377 242.08 227.377ZM242.08 199.27C235.199 199.27 229.49 204.979 229.49 211.86C229.49 218.74 235.199 224.449 242.08 224.449C248.96 224.449 254.669 218.74 254.669 211.86C254.669 204.979 248.96 199.27 242.08 199.27Z" fill="#A30C33"/>
<path d="M242.074 218.591C245.793 218.591 248.808 215.576 248.808 211.858C248.808 208.139 245.793 205.124 242.074 205.124C238.355 205.124 235.34 208.139 235.34 211.858C235.34 215.576 238.355 218.591 242.074 218.591Z" fill="#A30C33"/>
<path d="M110.324 258.119C114.043 258.119 117.058 255.104 117.058 251.385C117.058 247.666 114.043 244.651 110.324 244.651C106.605 244.651 103.59 247.666 103.59 251.385C103.59 255.104 106.605 258.119 110.324 258.119Z" fill="#A30C33"/>
<path d="M281.609 312.283C285.328 312.283 288.343 309.268 288.343 305.549C288.343 301.83 285.328 298.815 281.609 298.815C277.89 298.815 274.875 301.83 274.875 305.549C274.875 309.268 277.89 312.283 281.609 312.283Z" fill="#A30C33"/>
<path d="M196.701 360.298C188.21 360.298 181.184 353.418 181.184 344.781C181.184 336.144 188.064 329.264 196.701 329.264C205.338 329.264 212.218 336.144 212.218 344.781C212.218 353.418 205.191 360.298 196.701 360.298ZM196.701 332.192C189.82 332.192 184.111 337.901 184.111 344.781C184.111 351.662 189.82 357.371 196.701 357.371C203.581 357.371 209.29 351.662 209.29 344.781C209.29 337.901 203.581 332.192 196.701 332.192Z" fill="#A30C33"/>
<path d="M203.433 344.779C203.433 348.439 200.358 351.513 196.699 351.513C193.039 351.513 189.965 348.439 189.965 344.779C189.965 341.12 193.039 338.046 196.699 338.046C200.358 338.046 203.433 341.12 203.433 344.779Z" fill="#A30C33"/>
<path d="M233.296 392.794C237.015 392.794 240.03 389.78 240.03 386.061C240.03 382.342 237.015 379.327 233.296 379.327C229.577 379.327 226.562 382.342 226.562 386.061C226.562 389.78 229.577 392.794 233.296 392.794Z" fill="#A30C33"/>
<path d="M117.511 417.24C117.511 420.9 114.436 423.974 110.777 423.974C107.117 423.974 104.043 420.9 104.043 417.24C104.043 413.58 107.117 410.506 110.777 410.506C114.583 410.653 117.511 413.58 117.511 417.24Z" fill="#A30C33"/>
<g opacity="0.4">
<path d="M228.914 210.393L-19.9453 210.393V213.321L228.914 213.321V210.393Z" fill="black"/>
<path d="M-28.7324 198.685H-31.6602V181.118C-31.6602 180.679 -31.5138 180.386 -31.221 180.094L58.3683 90.7972C58.6611 90.5044 58.9539 90.358 59.393 90.358L141.077 90.358V93.2858L59.9786 93.2858L-28.7324 181.704V198.685Z" fill="black"/>
<path d="M183.53 346.537H73.739C73.2998 346.537 73.007 346.39 72.7143 346.097L-31.221 242.162C-31.5138 241.869 -31.6602 241.577 -31.6602 241.137V226.499H-28.7324V240.552L74.3245 343.609H183.53V346.537Z" fill="black"/>
<path d="M110.335 252.848H51.4869C51.0477 252.848 50.755 252.702 50.4622 252.409L10.9375 213.177L12.9869 211.128L52.0725 249.92H110.335V252.848Z" fill="black"/>
<path d="M69.6393 213.029L67.5898 210.98L106.968 171.309C107.261 171.016 107.554 170.87 107.993 170.87H167.426V173.798H108.578L69.6393 213.029Z" fill="black"/>
<path d="M293.319 138.665H60.8551C60.4159 138.665 60.1231 138.519 59.8303 138.226L36.5547 114.657L38.6041 112.608L61.4406 135.737H293.319V138.665Z" fill="black"/>
<path d="M86.0377 92.8488L83.9883 90.7994L122.049 52.7386C122.342 52.4458 122.635 52.2994 123.074 52.2994L245.015 52.2994V55.2272L123.659 55.2272L86.0377 92.8488Z" fill="black"/>
<path d="M109.75 418.268L50.7556 359.274C50.4628 358.981 50.3164 358.688 50.3164 358.249V323.116H53.2442V357.663L111.799 416.218L109.75 418.268Z" fill="black"/>
<path d="M96.4244 345.655L94.375 343.605L133.168 304.52C133.461 304.227 133.753 304.081 134.192 304.081H281.605V307.008H134.924L96.4244 345.655Z" fill="black"/>
<path d="M233.298 387.526H167.716C167.277 387.526 166.984 387.38 166.692 387.087L125.41 345.806L127.46 343.756L168.302 384.599H233.298V387.526Z" fill="black"/>
<path d="M245.011 60.4937C248.73 60.4937 251.745 57.4788 251.745 53.7598C251.745 50.0408 248.73 47.026 245.011 47.026C241.292 47.026 238.277 50.0408 238.277 53.7598C238.277 57.4788 241.292 60.4937 245.011 60.4937Z" fill="black"/>
<path d="M154.248 107.338C145.757 107.338 138.73 100.457 138.73 91.8204C138.73 83.1836 145.611 76.3033 154.248 76.3033C162.884 76.3033 169.765 83.1836 169.765 91.8204C169.765 100.457 162.738 107.338 154.248 107.338ZM154.248 79.2311C147.367 79.2311 141.658 84.9402 141.658 91.8204C141.658 98.7007 147.367 104.41 154.248 104.41C161.128 104.41 166.837 98.7007 166.837 91.8204C166.837 84.9402 161.128 79.2311 154.248 79.2311Z" fill="black"/>
<path d="M300.054 137.494C300.054 141.154 296.979 144.228 293.32 144.228C289.66 144.228 286.586 141.154 286.586 137.494C286.586 133.835 289.66 130.76 293.32 130.76C296.979 130.76 300.054 133.688 300.054 137.494Z" fill="black"/>
<path d="M167.421 179.068C171.14 179.068 174.155 176.053 174.155 172.334C174.155 168.615 171.14 165.6 167.421 165.6C163.702 165.6 160.688 168.615 160.688 172.334C160.688 176.053 163.702 179.068 167.421 179.068Z" fill="black"/>
<path d="M242.084 227.377C233.593 227.377 226.566 220.496 226.566 211.86C226.566 203.223 233.447 196.342 242.084 196.342C250.72 196.342 257.601 203.223 257.601 211.86C257.601 220.496 250.574 227.377 242.084 227.377ZM242.084 199.27C235.203 199.27 229.494 204.979 229.494 211.86C229.494 218.74 235.203 224.449 242.084 224.449C248.964 224.449 254.673 218.74 254.673 211.86C254.673 204.979 248.964 199.27 242.084 199.27Z" fill="black"/>
<path d="M110.328 258.119C114.047 258.119 117.061 255.104 117.061 251.385C117.061 247.666 114.047 244.651 110.328 244.651C106.609 244.651 103.594 247.666 103.594 251.385C103.594 255.104 106.609 258.119 110.328 258.119Z" fill="black"/>
<path d="M281.609 312.283C285.328 312.283 288.343 309.268 288.343 305.549C288.343 301.83 285.328 298.815 281.609 298.815C277.89 298.815 274.875 301.83 274.875 305.549C274.875 309.268 277.89 312.283 281.609 312.283Z" fill="black"/>
<path d="M196.705 360.298C188.214 360.298 181.188 353.418 181.188 344.781C181.188 336.144 188.068 329.264 196.705 329.264C205.342 329.264 212.222 336.144 212.222 344.781C212.222 353.418 205.195 360.298 196.705 360.298ZM196.705 332.192C189.825 332.192 184.115 337.901 184.115 344.781C184.115 351.662 189.825 357.371 196.705 357.371C203.585 357.371 209.294 351.662 209.294 344.781C209.294 337.901 203.585 332.192 196.705 332.192Z" fill="black"/>
<path d="M233.3 392.794C237.019 392.794 240.034 389.78 240.034 386.061C240.034 382.342 237.019 379.327 233.3 379.327C229.581 379.327 226.566 382.342 226.566 386.061C226.566 389.78 229.581 392.794 233.3 392.794Z" fill="black"/>
<path d="M117.511 417.24C117.511 420.9 114.436 423.974 110.777 423.974C107.117 423.974 104.043 420.9 104.043 417.24C104.043 413.58 107.117 410.506 110.777 410.506C114.583 410.653 117.511 413.58 117.511 417.24Z" fill="black"/>
</g>
</g>
<rect opacity="0.5" x="2" width="1250" height="471" fill="#A30C33"/>
</g>
<defs>
<clipPath id="clip0_1_1145">
<rect width="1250" height="471" fill="white"/>
</clipPath>
</defs>
</svg>
