<svg width="290" height="186" viewBox="0 0 290 186" fill="none" xmlns="http://www.w3.org/2000/svg">
<g clip-path="url(#clip0_501_223)">
<rect width="290" height="186" fill="#CB0F41"/>
<g opacity="0.4">
<path d="M211.027 107.138L311.363 107.138L311.363 105.943L211.027 105.943L211.027 107.138Z" fill="#A30C33"/>
<path d="M316.14 111.914L317.334 111.914L317.334 119.081C317.334 119.26 317.274 119.38 317.155 119.499L280.604 155.931C280.484 156.05 280.365 156.11 280.186 156.11L246.86 156.11L246.86 154.915L279.947 154.915L316.14 118.842L316.14 111.914Z" fill="#A30C33"/>
<path d="M229.54 51.5935L274.333 51.5934C274.512 51.5934 274.632 51.6532 274.751 51.7726L317.155 94.1765C317.274 94.2959 317.334 94.4154 317.334 94.5945L317.334 100.567L316.14 100.567L316.14 94.8334L274.094 52.7879L229.54 52.7879L229.54 51.5935Z" fill="#A30C33"/>
<path d="M259.404 89.8166L283.413 89.8166C283.592 89.8166 283.711 89.8764 283.831 89.9958L299.956 106.002L299.12 106.838L283.174 91.0111L259.404 91.0111L259.404 89.8166Z" fill="#A30C33"/>
<path d="M276.006 106.062L276.842 106.898L260.776 123.083C260.657 123.203 260.537 123.262 260.358 123.262L236.11 123.262L236.11 122.068L260.119 122.068L276.006 106.062Z" fill="#A30C33"/>
<path d="M184.75 136.401L279.592 136.401C279.771 136.401 279.89 136.461 280.01 136.58L289.506 146.196L288.67 147.032L279.353 137.596L184.75 137.596L184.75 136.401Z" fill="#A30C33"/>
<path d="M269.318 155.095L270.154 155.931L254.626 171.46C254.507 171.579 254.387 171.639 254.208 171.639L204.458 171.639L204.458 170.444L253.969 170.444L269.318 155.095Z" fill="#A30C33"/>
<path d="M259.642 22.3283L283.71 46.3969C283.83 46.5164 283.89 46.6358 283.89 46.815L283.89 61.1487L282.695 61.1487L282.695 47.0539L258.806 23.1644L259.642 22.3283Z" fill="#A30C33"/>
<path d="M265.078 51.953L265.914 52.7891L250.087 68.7354C249.968 68.8548 249.848 68.9146 249.669 68.9146L189.527 68.9146L189.527 67.7201L249.371 67.7201L265.078 51.953Z" fill="#A30C33"/>
<path d="M209.236 34.8702L235.992 34.8702C236.171 34.8702 236.29 34.9299 236.41 35.0493L253.252 51.8914L252.416 52.7275L235.753 36.0646L209.236 36.0646L209.236 34.8702Z" fill="#A30C33"/>
<path d="M204.456 168.294C202.939 168.294 201.709 169.524 201.709 171.041C201.709 172.559 202.939 173.789 204.456 173.789C205.973 173.789 207.203 172.559 207.203 171.041C207.203 169.524 205.973 168.294 204.456 168.294Z" fill="#A30C33"/>
<path d="M241.485 149.183C244.949 149.183 247.815 151.99 247.815 155.513C247.815 159.037 245.008 161.844 241.485 161.844C237.961 161.844 235.154 159.037 235.154 155.513C235.154 151.99 238.021 149.183 241.485 149.183ZM241.485 160.65C244.292 160.65 246.621 158.32 246.621 155.513C246.621 152.706 244.292 150.377 241.485 150.377C238.678 150.377 236.348 152.706 236.348 155.513C236.348 158.32 238.678 160.65 241.485 160.65Z" fill="#A30C33"/>
<path d="M241.487 152.767C239.97 152.767 238.74 153.997 238.74 155.514C238.74 157.031 239.97 158.261 241.487 158.261C243.004 158.261 244.234 157.031 244.234 155.514C244.234 153.997 243.004 152.767 241.487 152.767Z" fill="#A30C33"/>
<path d="M182.002 136.879C182.002 135.386 183.256 134.132 184.749 134.132C186.242 134.132 187.496 135.386 187.496 136.879C187.496 138.372 186.242 139.626 184.749 139.626C183.256 139.626 182.002 138.432 182.002 136.879Z" fill="#A30C33"/>
<path d="M236.112 119.918C234.595 119.918 233.365 121.148 233.365 122.665C233.365 124.182 234.595 125.412 236.112 125.412C237.629 125.412 238.859 124.182 238.859 122.665C238.859 121.148 237.629 119.918 236.112 119.918Z" fill="#A30C33"/>
<path d="M205.652 100.208C209.116 100.208 211.982 103.015 211.982 106.539C211.982 110.063 209.175 112.87 205.652 112.87C202.128 112.87 199.321 110.063 199.321 106.539C199.321 103.015 202.188 100.208 205.652 100.208ZM205.652 111.675C208.459 111.675 210.788 109.346 210.788 106.539C210.788 103.732 208.459 101.403 205.652 101.403C202.845 101.403 200.515 103.732 200.515 106.539C200.515 109.346 202.845 111.675 205.652 111.675Z" fill="#A30C33"/>
<path d="M205.655 103.793C204.138 103.793 202.908 105.023 202.908 106.54C202.908 108.057 204.138 109.287 205.655 109.287C207.172 109.287 208.402 108.057 208.402 106.54C208.402 105.023 207.172 103.793 205.655 103.793Z" fill="#A30C33"/>
<path d="M259.406 87.6663C257.889 87.6663 256.659 88.8963 256.659 90.4136C256.659 91.9309 257.889 93.1609 259.406 93.1609C260.923 93.1609 262.153 91.9309 262.153 90.4136C262.153 88.8963 260.923 87.6663 259.406 87.6663Z" fill="#A30C33"/>
<path d="M189.525 65.5684C188.008 65.5684 186.778 66.7984 186.778 68.3157C186.778 69.833 188.008 71.063 189.525 71.063C191.042 71.063 192.272 69.833 192.272 68.3157C192.272 66.7984 191.042 65.5684 189.525 65.5684Z" fill="#A30C33"/>
<path d="M224.166 45.9787C227.63 45.9787 230.497 48.7857 230.497 52.3094C230.497 55.8331 227.69 58.6401 224.166 58.6401C220.643 58.6401 217.836 55.8331 217.836 52.3094C217.836 48.7857 220.702 45.9787 224.166 45.9787ZM224.166 57.4457C226.973 57.4457 229.303 55.1165 229.303 52.3094C229.303 49.5024 226.973 47.1732 224.166 47.1732C221.359 47.1732 219.03 49.5024 219.03 52.3094C219.03 55.1165 221.359 57.4457 224.166 57.4457Z" fill="#A30C33"/>
<path d="M221.419 52.3103C221.419 50.8172 222.674 49.563 224.167 49.563C225.66 49.563 226.914 50.8172 226.914 52.3103C226.914 53.8034 225.66 55.0576 224.167 55.0576C222.674 55.0576 221.419 53.8034 221.419 52.3103Z" fill="#A30C33"/>
<path d="M209.235 32.7207C207.718 32.7207 206.488 33.9508 206.488 35.468C206.488 36.9853 207.718 38.2153 209.235 38.2153C210.752 38.2153 211.982 36.9853 211.982 35.468C211.982 33.9508 210.752 32.7207 209.235 32.7207Z" fill="#A30C33"/>
<path d="M256.474 22.7476C256.474 21.2545 257.728 20.0003 259.221 20.0003C260.715 20.0003 261.969 21.2545 261.969 22.7476C261.969 24.2407 260.715 25.4949 259.221 25.4949C257.669 25.4351 256.474 24.2407 256.474 22.7476Z" fill="#A30C33"/>
<g opacity="0.4">
<path d="M256.474 107.085L312.554 107.085L312.554 105.996L256.474 105.996L256.474 107.085Z" fill="black"/>
<path d="M316.14 111.914L317.334 111.914L317.334 119.081C317.334 119.26 317.274 119.38 317.155 119.499L280.604 155.931C280.484 156.05 280.365 156.11 280.186 156.11L246.86 156.11L246.86 154.915L279.947 154.915L316.14 118.842L316.14 111.914Z" fill="black"/>
<path d="M229.54 51.5935L274.333 51.5934C274.512 51.5934 274.632 51.6532 274.751 51.7726L317.155 94.1765C317.274 94.2959 317.334 94.4154 317.334 94.5945L317.334 100.567L316.14 100.567L316.14 94.8334L274.094 52.7879L229.54 52.7879L229.54 51.5935Z" fill="black"/>
<path d="M259.402 89.8166L283.411 89.8166C283.59 89.8166 283.709 89.8764 283.829 89.9958L299.954 106.002L299.118 106.838L283.172 91.0111L259.402 91.0111L259.402 89.8166Z" fill="black"/>
<path d="M276.005 106.062L276.841 106.898L260.775 123.083C260.656 123.203 260.536 123.262 260.357 123.262L244.269 123.262L244.269 122.068L260.118 122.068L276.005 106.062Z" fill="black"/>
<path d="M184.748 136.401L279.589 136.401C279.768 136.401 279.887 136.461 280.007 136.581L289.503 146.196L288.667 147.032L279.35 137.596L184.748 137.596L184.748 136.401Z" fill="black"/>
<path d="M269.314 155.095L270.15 155.931L254.622 171.46C254.503 171.579 254.383 171.639 254.204 171.639L204.454 171.639L204.454 170.444L253.965 170.444L269.314 155.095Z" fill="black"/>
<path d="M259.641 22.3283L283.71 46.3969C283.829 46.5164 283.889 46.6358 283.889 46.815L283.889 61.1487L282.694 61.1487L282.694 47.0539L258.805 23.1644L259.641 22.3283Z" fill="black"/>
<path d="M265.077 51.953L265.913 52.7891L250.086 68.7354C249.967 68.8548 249.847 68.9146 249.668 68.9146L189.526 68.9146L189.526 67.7201L249.37 67.7201L265.077 51.953Z" fill="black"/>
<path d="M209.235 34.8702L235.991 34.8702C236.17 34.8702 236.289 34.9299 236.409 35.0493L253.251 51.8914L252.415 52.7275L235.752 36.0646L209.235 36.0646L209.235 34.8702Z" fill="black"/>
<path d="M204.456 168.294C202.939 168.294 201.709 169.524 201.709 171.041C201.709 172.559 202.939 173.789 204.456 173.789C205.973 173.789 207.203 172.559 207.203 171.041C207.203 169.524 205.973 168.294 204.456 168.294Z" fill="black"/>
<path d="M241.487 149.183C244.951 149.183 247.817 151.99 247.817 155.513C247.817 159.037 245.01 161.844 241.487 161.844C237.963 161.844 235.156 159.037 235.156 155.513C235.156 151.99 238.023 149.183 241.487 149.183ZM241.487 160.65C244.294 160.65 246.623 158.32 246.623 155.513C246.623 152.706 244.294 150.377 241.487 150.377C238.68 150.377 236.35 152.706 236.35 155.513C236.35 158.32 238.68 160.65 241.487 160.65Z" fill="black"/>
<path d="M182.001 136.879C182.001 135.386 183.255 134.132 184.748 134.132C186.241 134.132 187.495 135.386 187.495 136.879C187.495 138.372 186.241 139.626 184.748 139.626C183.255 139.626 182.001 138.432 182.001 136.879Z" fill="black"/>
<path d="M244.271 119.918C242.754 119.918 241.524 121.148 241.524 122.665C241.524 124.182 242.754 125.412 244.271 125.412C245.789 125.412 247.019 124.182 247.019 122.665C247.019 121.148 245.789 119.918 244.271 119.918Z" fill="black"/>
<path d="M259.405 87.6663C257.888 87.6663 256.658 88.8963 256.658 90.4136C256.658 91.9309 257.888 93.1609 259.405 93.1609C260.922 93.1609 262.152 91.9309 262.152 90.4136C262.152 88.8963 260.922 87.6663 259.405 87.6663Z" fill="black"/>
<path d="M255.171 104.091C253.653 104.091 252.423 105.321 252.423 106.838C252.423 108.355 253.653 109.585 255.171 109.585C256.688 109.585 257.918 108.355 257.918 106.838C257.918 105.321 256.688 104.091 255.171 104.091Z" fill="black"/>
<path d="M189.525 65.5684C188.008 65.5684 186.778 66.7984 186.778 68.3157C186.778 69.833 188.008 71.063 189.525 71.063C191.042 71.063 192.272 69.833 192.272 68.3157C192.272 66.7984 191.042 65.5684 189.525 65.5684Z" fill="black"/>
<path d="M224.164 45.9787C227.628 45.9787 230.495 48.7857 230.495 52.3094C230.495 55.8331 227.688 58.6401 224.164 58.6401C220.641 58.6401 217.834 55.8331 217.834 52.3094C217.834 48.7857 220.7 45.9787 224.164 45.9787ZM224.164 57.4457C226.971 57.4457 229.301 55.1165 229.301 52.3094C229.301 49.5024 226.971 47.1732 224.164 47.1732C221.357 47.1732 219.028 49.5024 219.028 52.3094C219.028 55.1165 221.357 57.4457 224.164 57.4457Z" fill="black"/>
<path d="M209.234 32.721C207.717 32.721 206.487 33.951 206.487 35.4683C206.487 36.9856 207.717 38.2156 209.234 38.2156C210.751 38.2156 211.981 36.9856 211.981 35.4683C211.981 33.951 210.751 32.721 209.234 32.721Z" fill="black"/>
<path d="M256.474 22.7476C256.474 21.2545 257.728 20.0003 259.221 20.0003C260.715 20.0003 261.969 21.2545 261.969 22.7476C261.969 24.2407 260.715 25.4949 259.221 25.4949C257.669 25.4351 256.474 24.2407 256.474 22.7476Z" fill="black"/>
</g>
</g>
<g opacity="0.4">
<path d="M65.862 87.2271H-34.8564V88.4261H65.862V87.2271Z" fill="#A30C33"/>
<path d="M-39.6496 82.432H-40.8486V75.2378C-40.8486 75.0579 -40.7887 74.938 -40.6688 74.8181L-3.97849 38.2477C-3.85858 38.1278 -3.73867 38.0679 -3.55882 38.0679L29.8941 38.0679V39.2669L-3.31902 39.2669L-39.6496 75.4776V82.432Z" fill="#A30C33"/>
<path d="M47.28 142.983H2.31642C2.13657 142.983 2.01666 142.923 1.89676 142.803L-40.6688 100.238C-40.7887 100.118 -40.8486 99.9978 -40.8486 99.8179V93.8228H-39.6496V99.5781L2.55622 141.784H47.28V142.983Z" fill="#A30C33"/>
<path d="M17.3018 104.614H-6.79873C-6.97858 104.614 -7.09848 104.554 -7.21838 104.434L-23.4053 88.3671L-22.566 87.5278L-6.55891 103.415H17.3018V104.614Z" fill="#A30C33"/>
<path d="M0.63621 88.3065L-0.203125 87.4672L15.9238 71.2204C16.0437 71.1005 16.1636 71.0405 16.3435 71.0405H40.6838V72.2396H16.5833L0.63621 88.3065Z" fill="#A30C33"/>
<path d="M92.2388 57.8515L-2.96407 57.8515C-3.14393 57.8515 -3.26384 57.7916 -3.38374 57.6717L-12.916 48.0195L-12.0767 47.1802L-2.72427 56.6525L92.2388 56.6525V57.8515Z" fill="#A30C33"/>
<path d="M7.34908 39.088L6.50977 38.2487L22.0971 22.6613C22.217 22.5414 22.337 22.4814 22.5168 22.4814L72.4564 22.4814V23.6805L22.7566 23.6805L7.34908 39.088Z" fill="#A30C33"/>
<path d="M17.062 172.36L-7.09847 148.199C-7.21838 148.079 -7.27832 147.96 -7.27832 147.78L-7.27832 133.391H-6.07929L-6.07929 147.54L17.9013 171.52L17.062 172.36Z" fill="#A30C33"/>
<path d="M11.6069 142.622L10.7676 141.783L26.6547 125.776C26.7746 125.656 26.8945 125.596 27.0744 125.596H87.4455V126.795H27.3741L11.6069 142.622Z" fill="#A30C33"/>
<path d="M67.6618 159.77H40.8035C40.6237 159.77 40.5038 159.71 40.3839 159.59L23.4775 142.684L24.3169 141.844L41.0433 158.571H67.6618V159.77Z" fill="#A30C33"/>
<path d="M72.4589 25.8373C73.982 25.8373 75.2167 24.6026 75.2167 23.0795C75.2167 21.5565 73.982 20.3218 72.4589 20.3218C70.9359 20.3218 69.7012 21.5565 69.7012 23.0795C69.7012 24.6026 70.9359 25.8373 72.4589 25.8373Z" fill="#A30C33"/>
<path d="M35.2885 45.0217C31.8113 45.0217 28.9336 42.204 28.9336 38.6669C28.9336 35.1297 31.7513 32.312 35.2885 32.312C38.8256 32.312 41.6433 35.1297 41.6433 38.6669C41.6433 42.204 38.7656 45.0217 35.2885 45.0217ZM35.2885 33.511C32.4707 33.511 30.1326 35.8491 30.1326 38.6669C30.1326 41.4846 32.4707 43.8227 35.2885 43.8227C38.1062 43.8227 40.4443 41.4846 40.4443 38.6669C40.4443 35.8491 38.1062 33.511 35.2885 33.511Z" fill="#A30C33"/>
<path d="M35.2861 41.4237C36.8092 41.4237 38.0439 40.189 38.0439 38.666C38.0439 37.1429 36.8092 35.9082 35.2861 35.9082C33.763 35.9082 32.5283 37.1429 32.5283 38.666C32.5283 40.189 33.763 41.4237 35.2861 41.4237Z" fill="#A30C33"/>
<path d="M94.9989 57.372C94.9989 58.8708 93.74 60.1298 92.2412 60.1298C90.7424 60.1298 89.4834 58.8708 89.4834 57.372C89.4834 55.8732 90.7424 54.6143 92.2412 54.6143C93.74 54.6143 94.9989 55.8133 94.9989 57.372Z" fill="#A30C33"/>
<path d="M40.6826 74.3984C42.2056 74.3984 43.4403 73.1637 43.4403 71.6406C43.4403 70.1175 42.2056 68.8828 40.6826 68.8828C39.1595 68.8828 37.9248 70.1175 37.9248 71.6406C37.9248 73.1637 39.1595 74.3984 40.6826 74.3984Z" fill="#A30C33"/>
<path d="M71.2582 94.1824C67.781 94.1824 64.9033 91.3647 64.9033 87.8275C64.9033 84.2904 67.721 81.4727 71.2582 81.4727C74.7953 81.4727 77.613 84.2904 77.613 87.8275C77.613 91.3647 74.7354 94.1824 71.2582 94.1824ZM71.2582 82.6717C68.4405 82.6717 66.1023 85.0098 66.1023 87.8275C66.1023 90.6452 68.4405 92.9833 71.2582 92.9833C74.0759 92.9833 76.414 90.6452 76.414 87.8275C76.414 85.0098 74.0759 82.6717 71.2582 82.6717Z" fill="#A30C33"/>
<path d="M71.2558 90.5844C72.7789 90.5844 74.0136 89.3497 74.0136 87.8266C74.0136 86.3035 72.7789 85.0688 71.2558 85.0688C69.7327 85.0688 68.498 86.3035 68.498 87.8266C68.498 89.3497 69.7327 90.5844 71.2558 90.5844Z" fill="#A30C33"/>
<path d="M17.2988 106.772C18.8219 106.772 20.0566 105.538 20.0566 104.015C20.0566 102.492 18.8219 101.257 17.2988 101.257C15.7757 101.257 14.541 102.492 14.541 104.015C14.541 105.538 15.7757 106.772 17.2988 106.772Z" fill="#A30C33"/>
<path d="M87.4462 128.955C88.9693 128.955 90.204 127.72 90.204 126.197C90.204 124.674 88.9693 123.439 87.4462 123.439C85.9232 123.439 84.6885 124.674 84.6885 126.197C84.6885 127.72 85.9232 128.955 87.4462 128.955Z" fill="#A30C33"/>
<path d="M52.6732 148.619C49.196 148.619 46.3184 145.801 46.3184 142.264C46.3184 138.727 49.1361 135.909 52.6732 135.909C56.2104 135.909 59.0281 138.727 59.0281 142.264C59.0281 145.801 56.1504 148.619 52.6732 148.619ZM52.6732 137.108C49.8555 137.108 47.5174 139.447 47.5174 142.264C47.5174 145.082 49.8555 147.42 52.6732 147.42C55.4909 147.42 57.829 145.082 57.829 142.264C57.829 139.447 55.4909 137.108 52.6732 137.108Z" fill="#A30C33"/>
<path d="M55.4306 142.263C55.4306 143.762 54.1716 145.021 52.6728 145.021C51.174 145.021 49.915 143.762 49.915 142.263C49.915 140.765 51.174 139.506 52.6728 139.506C54.1716 139.506 55.4306 140.765 55.4306 142.263Z" fill="#A30C33"/>
<path d="M67.6611 161.927C69.1842 161.927 70.4189 160.693 70.4189 159.17C70.4189 157.647 69.1842 156.412 67.6611 156.412C66.138 156.412 64.9033 157.647 64.9033 159.17C64.9033 160.693 66.138 161.927 67.6611 161.927Z" fill="#A30C33"/>
<path d="M20.2421 171.939C20.2421 173.438 18.9831 174.697 17.4843 174.697C15.9855 174.697 14.7266 173.438 14.7266 171.939C14.7266 170.44 15.9855 169.181 17.4843 169.181C19.0431 169.241 20.2421 170.44 20.2421 171.939Z" fill="#A30C33"/>
<g opacity="0.4">
<path d="M65.8657 87.2271H-36.0518V88.4261H65.8657V87.2271Z" fill="black"/>
<path d="M-39.6496 82.432H-40.8486V75.2378C-40.8486 75.0579 -40.7887 74.938 -40.6688 74.8181L-3.97849 38.2477C-3.85858 38.1278 -3.73867 38.0679 -3.55882 38.0679L29.8941 38.0679V39.2669L-3.31902 39.2669L-39.6496 75.4776V82.432Z" fill="black"/>
<path d="M47.28 142.983H2.31642C2.13657 142.983 2.01666 142.923 1.89676 142.803L-40.6688 100.238C-40.7887 100.118 -40.8486 99.9978 -40.8486 99.8179V93.8228H-39.6496V99.5781L2.55622 141.784H47.28V142.983Z" fill="black"/>
<path d="M17.3037 104.614H-6.79678C-6.97663 104.614 -7.09652 104.554 -7.21643 104.434L-23.4033 88.3671L-22.564 87.5278L-6.55696 103.415H17.3037V104.614Z" fill="black"/>
<path d="M0.637187 88.3065L-0.202148 87.4672L15.9248 71.2204C16.0447 71.1005 16.1646 71.0405 16.3445 71.0405H40.6848V72.2396H16.5843L0.637187 88.3065Z" fill="black"/>
<path d="M92.2427 57.8515L-2.96017 57.8515C-3.14002 57.8515 -3.25993 57.7916 -3.37983 57.6717L-12.9121 48.0195L-12.0728 47.1802L-2.72036 56.6525L92.2427 56.6525V57.8515Z" fill="black"/>
<path d="M7.35299 39.088L6.51367 38.2487L22.1011 22.6613C22.221 22.5414 22.3409 22.4814 22.5207 22.4814L72.4603 22.4814V23.6805L22.7605 23.6805L7.35299 39.088Z" fill="black"/>
<path d="M17.0639 172.36L-7.09652 148.199C-7.21642 148.079 -7.27637 147.96 -7.27637 147.78L-7.27637 133.391H-6.07734L-6.07734 147.54L17.9032 171.52L17.0639 172.36Z" fill="black"/>
<path d="M11.6069 142.622L10.7676 141.783L26.6547 125.776C26.7746 125.656 26.8945 125.596 27.0744 125.596H87.4455V126.795H27.3741L11.6069 142.622Z" fill="black"/>
<path d="M67.6618 159.77H40.8035C40.6237 159.77 40.5038 159.71 40.3839 159.59L23.4775 142.684L24.3169 141.844L41.0433 158.571H67.6618V159.77Z" fill="black"/>
<path d="M72.4589 25.8373C73.982 25.8373 75.2167 24.6026 75.2167 23.0795C75.2167 21.5565 73.982 20.3218 72.4589 20.3218C70.9359 20.3218 69.7012 21.5565 69.7012 23.0795C69.7012 24.6026 70.9359 25.8373 72.4589 25.8373Z" fill="black"/>
<path d="M35.2875 45.0217C31.8103 45.0217 28.9326 42.204 28.9326 38.6669C28.9326 35.1297 31.7503 32.312 35.2875 32.312C38.8246 32.312 41.6423 35.1297 41.6423 38.6669C41.6423 42.204 38.7647 45.0217 35.2875 45.0217ZM35.2875 33.511C32.4698 33.511 30.1316 35.8491 30.1316 38.6669C30.1316 41.4846 32.4698 43.8227 35.2875 43.8227C38.1052 43.8227 40.4433 41.4846 40.4433 38.6669C40.4433 35.8491 38.1052 33.511 35.2875 33.511Z" fill="black"/>
<path d="M95.0009 57.372C95.0009 58.8708 93.7419 60.1298 92.2431 60.1298C90.7443 60.1298 89.4854 58.8708 89.4854 57.372C89.4854 55.8732 90.7443 54.6143 92.2431 54.6143C93.7419 54.6143 95.0009 55.8133 95.0009 57.372Z" fill="black"/>
<path d="M40.6826 74.3981C42.2056 74.3981 43.4403 73.1634 43.4403 71.6403C43.4403 70.1173 42.2056 68.8826 40.6826 68.8826C39.1595 68.8826 37.9248 70.1173 37.9248 71.6403C37.9248 73.1634 39.1595 74.3981 40.6826 74.3981Z" fill="black"/>
<path d="M71.2592 94.1824C67.782 94.1824 64.9043 91.3647 64.9043 87.8275C64.9043 84.2904 67.722 81.4727 71.2592 81.4727C74.7963 81.4727 77.614 84.2904 77.614 87.8275C77.614 91.3647 74.7363 94.1824 71.2592 94.1824ZM71.2592 82.6717C68.4414 82.6717 66.1033 85.0098 66.1033 87.8275C66.1033 90.6452 68.4414 92.9833 71.2592 92.9833C74.0769 92.9833 76.415 90.6452 76.415 87.8275C76.415 85.0098 74.0769 82.6717 71.2592 82.6717Z" fill="black"/>
<path d="M17.3007 106.772C18.8238 106.772 20.0585 105.538 20.0585 104.015C20.0585 102.492 18.8238 101.257 17.3007 101.257C15.7777 101.257 14.543 102.492 14.543 104.015C14.543 105.538 15.7777 106.772 17.3007 106.772Z" fill="black"/>
<path d="M87.4462 128.955C88.9693 128.955 90.204 127.72 90.204 126.197C90.204 124.674 88.9693 123.439 87.4462 123.439C85.9232 123.439 84.6885 124.674 84.6885 126.197C84.6885 127.72 85.9232 128.955 87.4462 128.955Z" fill="black"/>
<path d="M52.6752 148.619C49.198 148.619 46.3203 145.801 46.3203 142.264C46.3203 138.727 49.138 135.909 52.6752 135.909C56.2123 135.909 59.03 138.727 59.03 142.264C59.03 145.801 56.1524 148.619 52.6752 148.619ZM52.6752 137.108C49.8575 137.108 47.5193 139.447 47.5193 142.264C47.5193 145.082 49.8575 147.42 52.6752 147.42C55.4929 147.42 57.831 145.082 57.831 142.264C57.831 139.447 55.4929 137.108 52.6752 137.108Z" fill="black"/>
<path d="M67.6621 161.927C69.1851 161.927 70.4198 160.693 70.4198 159.17C70.4198 157.647 69.1851 156.412 67.6621 156.412C66.139 156.412 64.9043 157.647 64.9043 159.17C64.9043 160.693 66.139 161.927 67.6621 161.927Z" fill="black"/>
<path d="M20.2421 171.939C20.2421 173.438 18.9831 174.697 17.4843 174.697C15.9855 174.697 14.7266 173.438 14.7266 171.939C14.7266 170.44 15.9855 169.181 17.4843 169.181C19.0431 169.241 20.2421 170.44 20.2421 171.939Z" fill="black"/>
</g>
</g>
<rect opacity="0.5" width="290" height="186" fill="#A30C33"/>
</g>
<defs>
<clipPath id="clip0_501_223">
<rect width="290" height="186" fill="white"/>
</clipPath>
</defs>
</svg>
